<svg xmlns="http://www.w3.org/2000/svg" width="88.435" height="99.007" viewBox="0 0 88.435 99.007"><defs><style>.a{opacity:0.1;}.b{fill:#4390ef;fill-rule:evenodd;}</style></defs><g class="a" transform="translate(-6.99 -4)"><g transform="translate(6.99 4)"><path class="b" d="M51.207,4a22.4,22.4,0,1,1-22.4,22.4A22.395,22.395,0,0,1,51.207,4Zm0,99.007h.619a54.608,54.608,0,0,0,43.6-22.542L92.843,69.61c-.831-5.8-4.6-9.671-10.8-11.934l-16.159-4.65a30.568,30.568,0,0,1-29.349,0l-16.159,4.65c-6.206,2.263-9.971,6.135-10.8,11.934L6.99,80.465a54.559,54.559,0,0,0,43.6,22.542h.619Z" transform="translate(-6.99 -4)"/></g></g></svg>