<svg xmlns="http://www.w3.org/2000/svg" width="30" height="23.684" viewBox="0 0 30 23.684">
  <g id="Groupe_434" data-name="Groupe 434" transform="translate(-501 -318.66)">
    <g id="Groupe_98" data-name="Groupe 98" transform="translate(479.504 291.162)" opacity="0.5">
      <g id="Groupe_97" data-name="Groupe 97" transform="translate(21.496 27.498)">
        <path id="Tracé_51" data-name="Tracé 51" d="M49.128,30.658H46.76a3.659,3.659,0,0,1-2.139-.886l-.925-.925A5.12,5.12,0,0,0,40.444,27.5H32.55a5.134,5.134,0,0,0-3.255,1.348l-.925.925a3.648,3.648,0,0,1-2.137.886H23.864A2.371,2.371,0,0,0,21.5,33.026V48.814a2.372,2.372,0,0,0,2.368,2.368H49.128A2.371,2.371,0,0,0,51.5,48.814V33.026A2.37,2.37,0,0,0,49.128,30.658ZM36.495,46.445a7.1,7.1,0,1,1,7.1-7.1A7.113,7.113,0,0,1,36.495,46.445Z" transform="translate(-21.496 -27.498)" fill="#fff"/>
        <path id="Tracé_52" data-name="Tracé 52" d="M45.023,39.5a5.526,5.526,0,1,0,5.526,5.526A5.532,5.532,0,0,0,45.023,39.5Z" transform="translate(-30.024 -33.185)" fill="#fff"/>
      </g>
    </g>
  </g>
</svg>
