<svg xmlns="http://www.w3.org/2000/svg" width="13.49" height="14.944" viewBox="0 0 13.49 14.944">
  <g id="Groupe_430" data-name="Groupe 430" transform="translate(-24.5 -22)">
    <g id="Groupe_429" data-name="Groupe 429" transform="translate(24.5 22)">
      <path id="Tracé_325" data-name="Tracé 325" d="M33.478,34.961a2.249,2.249,0,0,1-4.466,0h-3.85a.66.66,0,0,1-.662-.66v-.794a1.456,1.456,0,0,1,1.455-1.455.133.133,0,0,0,.132-.133V28.745a5.159,5.159,0,0,1,3.571-4.909v-.248a1.587,1.587,0,1,1,3.174,0v.248A5.16,5.16,0,0,1,36.4,28.745v3.174a.131.131,0,0,0,.132.133,1.457,1.457,0,0,1,1.455,1.455V34.3a.662.662,0,0,1-.662.66Zm-.8,0H29.814a1.455,1.455,0,0,0,2.861,0ZM37.2,33.506a.663.663,0,0,0-.662-.661.925.925,0,0,1-.925-.926V28.745a4.365,4.365,0,0,0-3.273-4.226l-.3-.077v-.854a.794.794,0,1,0-1.587,0v.854l-.3.076a4.365,4.365,0,0,0-3.273,4.227v3.174a.926.926,0,0,1-.925.926.662.662,0,0,0-.662.661v.661H37.2Z" transform="translate(-24.5 -22)" fill="#4390ef"/>
    </g>
  </g>
</svg>
