<?xml version="1.0" encoding="UTF-8"?>
<svg width="17px" height="19px" viewBox="0 0 17 19" version="1.1" xmlns="http://www.w3.org/2000/svg" xmlns:xlink="http://www.w3.org/1999/xlink">
    <!-- Generator: Sketch 52.3 (67297) - http://www.bohemiancoding.com/sketch -->
    <title>archive-icn</title>
    <desc>Created with Sketch.</desc>
    <g id="Library" stroke="none" stroke-width="1" fill="none" fill-rule="evenodd">
        <g id="UI-Icons" transform="translate(-949.000000, -236.000000)" fill="#A3A6B6" fill-rule="nonzero">
            <g id="archive-icn" transform="translate(949.000000, 236.000000)">
                <path d="M15.5217391,5.74684932 L15.5217391,4.68493151 C15.5217391,3.67871409 14.7495925,2.8630137 13.7971014,2.8630137 L13.5507246,2.8630137 L13.5507246,1.82191781 C13.5507246,0.815700387 12.778578,0 11.826087,0 L5.17391304,0 C4.22142195,0 3.44927536,0.815700387 3.44927536,1.82191781 L3.44927536,2.8630137 L3.20289855,2.8630137 C2.25040746,2.8630137 1.47826087,3.67871409 1.47826087,4.68493151 L1.47826087,5.74684932 C0.630496322,5.87611505 0.00100386711,6.64308135 0,7.54794521 L0,17.1780822 C0,18.1842996 0.772146591,19 1.72463768,19 L15.2753623,19 C16.2278534,19 17,18.1842996 17,17.1780822 L17,7.54794521 C16.9989961,6.64308135 16.3695037,5.87611505 15.5217391,5.74684932 Z M4.92753623,1.82191781 C4.92753623,1.67817246 5.03784289,1.56164384 5.17391304,1.56164384 L11.826087,1.56164384 C11.9621571,1.56164384 12.0724638,1.67817246 12.0724638,1.82191781 L12.0724638,2.8630137 L4.92753623,2.8630137 L4.92753623,1.82191781 Z M10.8405797,11.9726027 L6.15942029,11.9726027 C5.75120982,11.9726027 5.42028986,11.6230169 5.42028986,11.1917808 C5.42028986,10.7605448 5.75120982,10.4109589 6.15942029,10.4109589 L10.8405797,10.4109589 C11.2487902,10.4109589 11.5797101,10.7605448 11.5797101,11.1917808 C11.5797101,11.6230169 11.2487902,11.9726027 10.8405797,11.9726027 Z M14.0434783,5.7260274 L2.95652174,5.7260274 L2.95652174,4.68493151 C2.95652174,4.54118616 3.06682839,4.42465753 3.20289855,4.42465753 L13.7971014,4.42465753 C13.9331716,4.42465753 14.0434783,4.54118616 14.0434783,4.68493151 L14.0434783,5.7260274 Z" id="Shape"></path>
            </g>
        </g>
    </g>
</svg>