<svg xmlns="http://www.w3.org/2000/svg" width="36" height="36" viewBox="0 0 36 36">
  <g id="Groupe_244" data-name="Groupe 244" transform="translate(-1234 -447)">
    <g id="Rectangle_187" data-name="Rectangle 187" transform="translate(1234 447)" fill="#fff" stroke="#f3f7fc" stroke-width="1">
      <rect width="36" height="36" rx="3" stroke="none"/>
      <rect x="0.5" y="0.5" width="35" height="35" rx="2.5" fill="none"/>
    </g>
    <g id="Groupe_222" data-name="Groupe 222" transform="translate(1235.617 451.118)">
      <path id="Tracé_180" data-name="Tracé 180" d="M8.4,8.693h1.8V20.868a2.4,2.4,0,0,0,2.4,2.4h7.983a2.4,2.4,0,0,0,2.4-2.4V8.693h1.4a.4.4,0,0,0,0-.8H19.975V7.5a2,2,0,0,0-2-2H15.185a2,2,0,0,0-2,2v.4H8.4a.4.4,0,0,0,0,.8ZM22.171,20.868a1.6,1.6,0,0,1-1.6,1.6H12.59a1.6,1.6,0,0,1-1.6-1.6V8.693H22.171ZM13.988,7.5a1.2,1.2,0,0,1,1.2-1.2h2.794a1.2,1.2,0,0,1,1.2,1.2v.4H13.988Z" fill="#ff7b5c"/>
      <path id="Tracé_181" data-name="Tracé 181" d="M49.4,40.5a.4.4,0,0,0-.4.4v7.185a.4.4,0,1,0,.8,0V40.9A.4.4,0,0,0,49.4,40.5Z" transform="translate(-32.817 -28.014)" fill="#ff7b5c"/>
      <path id="Tracé_182" data-name="Tracé 182" d="M63,40.9v7.185a.4.4,0,1,0,.8,0V40.9a.4.4,0,0,0-.8,0Z" transform="translate(-44.023 -28.014)" fill="#ff7b5c"/>
      <path id="Tracé_183" data-name="Tracé 183" d="M35.4,40.5a.4.4,0,0,0-.4.4v7.185a.4.4,0,1,0,.8,0V40.9A.4.4,0,0,0,35.4,40.5Z" transform="translate(-21.611 -28.014)" fill="#ff7b5c"/>
    </g>
  </g>
</svg>
