<?xml version="1.0" encoding="UTF-8"?>
<svg width="36px" height="32px" viewBox="0 0 36 32" version="1.1" xmlns="http://www.w3.org/2000/svg" xmlns:xlink="http://www.w3.org/1999/xlink">
    <!-- Generator: Sketch 52.3 (67297) - http://www.bohemiancoding.com/sketch -->
    <title>Aileron jaune</title>
    <desc>Created with Sketch.</desc>
    <defs>
        <linearGradient x1="100%" y1="100%" x2="0%" y2="0%" id="linearGradient-1">
            <stop stop-color="#FFB347" offset="0%"></stop>
            <stop stop-color="#FFB942" offset="28.8227059%"></stop>
            <stop stop-color="#FFC33A" offset="56.3696712%"></stop>
            <stop stop-color="#FFCC33" offset="100%"></stop>
        </linearGradient>
    </defs>
    <g id="Page-1" stroke="none" stroke-width="1" fill="none" fill-rule="evenodd">
        <g id="Artboard">
            <g id="Aileron-jaune">
                <path d="M31.9865995,3.50741636e-31 L35.9708903,3.94430453e-31 L35.9999937,16.9865933 C36.0075328,25.2708611 29.2979185,31.9926987 21.0136507,32.0002379 C21.0091004,32.000242 21.0045501,32.0002441 20.9999999,32.0002441 L0,31.9865995 L0,31.9865995 C-2.16342565e-15,14.3208884 14.3208884,3.24513848e-15 31.9865995,0 Z" id="Rectangle" fill="url(#linearGradient-1)"></path>
                <g id="alert" transform="translate(18.000000, 11.000000)" fill="#FFFFFF" fill-rule="nonzero">
                    <path d="M1.5,13.8 C0.873709094,13.8 0.366,13.2922909 0.366,12.666 C0.366,12.0397091 0.873709094,11.532 1.5,11.532 C2.12629091,11.532 2.634,12.0397091 2.634,12.666 C2.634,13.2922909 2.12629091,13.8 1.5,13.8 Z" id="Path"></path>
                    <path d="M2.634,8.886 C2.63399997,9.51229089 2.12629089,10.02 1.5,10.02 C0.873709112,10.02 0.366000026,9.51229089 0.366,8.886 L0.366,2.334 C0.366,1.70770909 0.873709094,1.2 1.5,1.2 C2.12629091,1.2 2.634,1.70770909 2.634,2.334 L2.634,8.886 Z" id="Path"></path>
                </g>
            </g>
        </g>
    </g>
</svg>