<?xml version="1.0" encoding="UTF-8"?>
<svg width="24px" height="25px" viewBox="0 0 24 25" version="1.1" xmlns="http://www.w3.org/2000/svg" xmlns:xlink="http://www.w3.org/1999/xlink">
    <!-- Generator: Sketch 52.3 (67297) - http://www.bohemiancoding.com/sketch -->
    <title>calendar icon</title>
    <desc>Created with Sketch.</desc>
    <g id="Page-1" stroke="none" stroke-width="1" fill="none" fill-rule="evenodd">
        <g id="Logo" transform="translate(-3.000000, -3.000000)">
            <g id="calendar-icon" transform="translate(3.000000, 3.000000)">
                <path d="M20.6213188,9.10344828 L4.2060037,9.10344828 C3.71111065,9.10344828 3.31034483,9.4777552 3.31034483,9.93992631 L3.31034483,21.5097097 C3.31034483,21.9713367 3.71111065,22.3448276 4.2060037,22.3448276 L20.6215825,22.3448276 C21.1167392,22.3448276 21.5172414,21.9713367 21.5172414,21.5097097 L21.5172414,9.93992631 C21.5169777,9.4777552 21.1164756,9.10344828 20.6213188,9.10344828 Z M9.22269528,20.7678965 L4.8796594,20.7678965 L4.8796594,16.1826367 L9.22269528,16.1826367 L9.22269528,20.7678965 Z M9.22269528,15.1320747 L4.8796594,15.1320747 L4.8796594,10.5468149 L9.22269528,10.5468149 L9.22269528,15.1320747 Z M14.6902484,20.7678965 L10.3472125,20.7678965 L10.3472125,16.1826367 L14.6899847,16.1826367 L14.6899847,20.7678965 L14.6902484,20.7678965 Z M14.6902484,15.1320747 L10.3472125,15.1320747 L10.3472125,10.5468149 L14.6899847,10.5468149 L14.6899847,15.1320747 L14.6902484,15.1320747 Z M20.3608211,20.7678965 L16.0180488,20.7678965 L16.0180488,16.1826367 L20.3608211,16.1826367 L20.3608211,20.7678965 Z M20.3608211,15.1320747 L16.0180488,15.1320747 L16.0180488,10.5468149 L20.3608211,10.5468149 L20.3608211,15.1320747 Z" id="Shape"></path>
                <path d="M21.7357333,2.48275862 L20.9434667,2.48275862 L20.9434667,3.93636212 C20.9434667,4.90705344 20.1648,5.69685549 19.2074667,5.69685549 C18.2504,5.69685549 17.4714667,4.90705344 17.4714667,3.93636212 L17.4714667,2.48275862 L6.52826667,2.48275862 L6.52826667,3.93636212 C6.52826667,4.90705344 5.74933333,5.69685549 4.79253333,5.69685549 C3.83493333,5.69685549 3.05626667,4.90705344 3.05626667,3.93636212 L3.05626667,2.48275862 L2.26426667,2.48275862 C1.01386667,2.48275862 0,3.51050172 0,4.77834897 L0,22.5322662 C0,23.7998431 1.01386667,24.8275862 2.26426667,24.8275862 L21.7357333,24.8275862 C22.9861333,24.8275862 24,23.7998431 24,22.5322662 L24,4.77834897 C24,3.51050172 22.9861333,2.48275862 21.7357333,2.48275862 Z M21.2069333,21.2422472 C21.2069333,21.7010949 20.8018667,22.072337 20.3010667,22.072337 L3.69866667,22.072337 C3.19813333,22.072337 2.7928,21.7010949 2.7928,21.2422472 L2.7928,9.74212371 C2.7928,9.28273525 3.19813333,8.91068198 3.69866667,8.91068198 L20.3013333,8.91068198 C20.8021333,8.91068198 21.2072,9.28273525 21.2072,9.74212371 L21.2072,21.2422472 L21.2069333,21.2422472 Z" id="Shape" fill="#A3A6B6" fill-rule="nonzero"></path>
                <path d="M4.96551724,4.96551724 C5.42171317,4.96551724 5.79310345,4.60534567 5.79310345,4.16209727 L5.79310345,2.77507552 L5.79310345,0.803161965 C5.79310345,0.359913569 5.42197902,0 4.96551724,0 C4.50905546,0 4.13793103,0.359655567 4.13793103,0.803161965 L4.13793103,2.77507552 L4.13793103,4.16209727 C4.13793103,4.60534567 4.50905546,4.96551724 4.96551724,4.96551724 Z" id="Path" fill="#A3A6B6"></path>
                <path d="M19.0346157,4.96551724 C19.4910041,4.96551724 19.862069,4.60534567 19.862069,4.16209727 L19.862069,2.77507552 L19.862069,0.803161965 C19.862069,0.359913569 19.4910041,0 19.0346157,0 C18.5782272,0 18.2068966,0.359655567 18.2068966,0.803161965 L18.2068966,2.77507552 L18.2068966,4.16209727 C18.2068966,4.60534567 18.5782272,4.96551724 19.0346157,4.96551724 Z" id="Path" fill="#A3A6B6"></path>
                <rect id="Rectangle" fill="#A3A6B6" x="4.96551724" y="10.7586207" width="4.13793103" height="4.13793103" rx="1"></rect>
                <rect id="Rectangle" fill="#A3A6B6" x="9.93103448" y="10.7586207" width="4.13793103" height="4.13793103" rx="1"></rect>
                <rect id="Rectangle" fill="#A3A6B6" x="4.96551724" y="16.5517241" width="4.13793103" height="4.13793103" rx="1"></rect>
                <rect id="Rectangle" fill="#A3A6B6" x="9.93103448" y="16.5517241" width="4.13793103" height="4.13793103" rx="1"></rect>
                <rect id="Rectangle" fill="#A3A6B6" x="15.7241379" y="10.7586207" width="4.13793103" height="4.13793103" rx="1"></rect>
                <rect id="Rectangle" fill="#A3A6B6" x="15.7241379" y="16.5517241" width="4.13793103" height="4.13793103" rx="1"></rect>
            </g>
        </g>
    </g>
</svg>