<?xml version="1.0" encoding="UTF-8"?>
<svg width="25px" height="20px" viewBox="0 0 25 20" version="1.1" xmlns="http://www.w3.org/2000/svg" xmlns:xlink="http://www.w3.org/1999/xlink">
    <!-- Generator: sketchtool 52.3 (67297) - http://www.bohemiancoding.com/sketch -->
    <title>16B9BF60-9BA1-4E08-BAA1-BB2140128EC5</title>
    <desc>Created with sketchtool.</desc>
    <defs>
        <linearGradient x1="107.311035%" y1="50%" x2="0%" y2="50%" id="linearGradient-1">
            <stop stop-color="#089EFE" offset="0%"></stop>
            <stop stop-color="#2255F9" offset="100%"></stop>
        </linearGradient>
    </defs>
    <g id="Library" stroke="none" stroke-width="1" fill="none" fill-rule="evenodd">
        <g id="UI-Icons" transform="translate(-245.000000, -354.000000)" fill="url(#linearGradient-1)">
            <g id="Car3-icn" transform="translate(245.000000, 354.000000)">
                <path d="M1.40224268,9.25170028 C1.47053657,9.11425626 1.57297741,8.83936823 1.67541824,8.5301192 C1.29980184,8.5301192 0.958332387,8.5301192 0.582715985,8.49575819 C-0.236810709,8.49575819 -0.202663764,7.08695704 0.753450713,6.39973696 C1.16321406,6.12484893 1.81200603,6.02176592 2.49494494,6.12484893 L3.82667582,2.03588948 C4.7144964,-0.678629825 20.2855036,-0.678629825 21.1733242,2.03588948 L22.5050551,6.12484893 C22.5050551,6.12484893 24.0075207,6.22793194 24.2465493,6.39973696 C25.2026638,7.08695704 25.2368107,8.49575819 24.417284,8.49575819 C24.0416676,8.5301192 23.7001982,8.5301192 23.3587287,8.5301192 C23.4611695,8.83936823 23.5294634,9.11425626 23.5977573,9.25170028 C23.8709329,9.90455935 23.7001982,16.6393161 23.7001982,18.3230053 C23.7001982,18.7353373 23.3928756,19.0789474 22.9831123,19.0789474 L19.6708586,19.0789474 C19.2610952,19.0789474 18.9537727,18.7353373 18.9537727,18.3230053 L18.9537727,16.5362331 C14.6512576,16.6049551 10.3828894,16.6049551 6.08037423,16.5362331 L6.08037423,18.3230053 C6.08037423,18.7353373 5.73890477,19.0789474 5.32914142,19.0789474 L2.0168877,19.0789474 C1.6412713,19.0789474 1.29980184,18.7353373 1.29980184,18.3230053 C1.29980184,16.6393161 1.12906711,9.90455935 1.40224268,9.25170028 Z M5.05596586,2.79183156 C4.61205557,3.96010569 4.30473306,5.16274082 3.89496971,6.36537596 C10.5536241,7.73981611 14.4463759,7.73981611 21.1050303,6.36537596 C20.7294139,5.16274082 20.3879444,3.96010569 19.9440341,2.79183156 C18.9879197,0.936337354 6.04622728,0.936337354 5.05596586,2.79183156 Z M22.0952917,10.7635844 C21.5489406,9.73275433 18.6123033,11.3820825 17.8610705,11.7256926 C17.2122785,13.4093817 20.4903853,12.9970497 21.7879692,12.5503566 C22.4026142,12.3441906 22.1635856,11.2446385 22.0952917,10.7635844 Z M2.90470829,10.7635844 C3.45105942,9.73275433 6.38769674,11.3820825 7.13892954,11.7256926 C7.78772151,13.4093817 4.50961473,12.9970497 3.2120308,12.5503566 C2.59738578,12.3441906 2.83641439,11.2446385 2.90470829,10.7635844 Z" id="Shape"></path>
            </g>
        </g>
    </g>
</svg>