<svg xmlns="http://www.w3.org/2000/svg" width="60" height="60" viewBox="0 0 60 60">
  <g id="Groupe_277" data-name="Groupe 277" transform="translate(-1003 -455)">
    <g id="Rectangle_185" data-name="Rectangle 185" transform="translate(1003 455)" fill="#fff" stroke="#f3f7fc" stroke-width="1">
      <rect width="60" height="60" rx="3" stroke="none"/>
      <rect x="0.5" y="0.5" width="59" height="59" rx="2.5" fill="none"/>
    </g>
    <g id="Groupe_218" data-name="Groupe 218" transform="translate(1010.581 463.549)">
      <path id="Tracé_176" data-name="Tracé 176" d="M18.226,37.9H36.5a.914.914,0,0,0,.914-.914V18.709a.931.931,0,0,0-.269-.647L24.356,5.268A.914.914,0,0,0,23.709,5h-12.8A.914.914,0,0,0,10,5.914V31.5a.914.914,0,0,0,.914.914h2.742V35.16a.914.914,0,0,0,.914.914h2.742v.914A.914.914,0,0,0,18.226,37.9ZM15.484,10.484h11.5l1.828,1.828H18.226a.914.914,0,0,0-.914.914V34.247H15.484ZM11.828,6.828h11.5l1.828,1.828H14.57a.914.914,0,0,0-.914.914V30.591H11.828ZM32.849,36.074H19.14V14.14H30.107v4.57a.914.914,0,0,0,.914.914h4.57V36.074ZM34.3,17.8H31.935V15.432Z" fill="#4390ef"/>
      <path id="Tracé_177" data-name="Tracé 177" d="M51.881,65H40.914a.914.914,0,0,0,0,1.828H51.881a.914.914,0,0,0,0-1.828Z" transform="translate(-19.033 -38.065)" fill="#4390ef"/>
      <path id="Tracé_178" data-name="Tracé 178" d="M51.881,55H40.914a.914.914,0,1,0,0,1.828H51.881a.914.914,0,0,0,0-1.828Z" transform="translate(-19.033 -31.721)" fill="#4390ef"/>
    </g>
  </g>
</svg>
