<?xml version="1.0" encoding="UTF-8"?>
<svg width="22px" height="21px" viewBox="0 0 22 21" version="1.1" xmlns="http://www.w3.org/2000/svg" xmlns:xlink="http://www.w3.org/1999/xlink">
    <!-- Generator: Sketch 52.3 (67297) - http://www.bohemiancoding.com/sketch -->
    <title>edit icon</title>
    <desc>Created with Sketch.</desc>
    <g id="Page-1" stroke="none" stroke-width="1" fill="none" fill-rule="evenodd">
        <g id="Artboard">
            <g id="edit-icon">
                <g id="Group" transform="translate(6.000000, 4.000000)">
                    <g id="Path">
                        <path d="M10.8172723,1.79862222 L9.21780357,0.206262222 C9.00536607,-0.00361777778 8.63205357,-0.00361777778 8.42138393,0.206262222 L6.97321429,1.64799556 L1.38000893,7.21472889 C1.33006696,7.26606222 1.28984821,7.32531556 1.26097321,7.39087556 L0.0638392857,10.1750489 C-0.0263214286,10.3865422 0.0203794643,10.6300089 0.182875,10.7917822 C0.290714286,10.8991422 0.43553125,10.9567822 0.58196875,10.9567822 C0.655924107,10.9567822 0.731647321,10.9424089 0.803982143,10.9119022 L3.60058482,9.71847556 C3.66658482,9.69119556 3.72610268,9.65115556 3.77589732,9.59996889 L9.36895536,4.03338222 L10.817125,2.59164889 C10.9217232,2.48590222 10.9812411,2.34334222 10.9812411,2.19594222 C10.9813884,2.04692889 10.9218705,1.90436889 10.8172723,1.79862222 Z" stroke="#A3A6B6" stroke-width="0.5" fill="#A3A6B6" fill-rule="nonzero"></path>
                        <path d="M8.614375,3.19870222 L8.61599554,3.20031556 C8.60155804,3.21307556 8.58697321,3.22598222 8.57253571,3.24035556 L8.614375,3.19870222 L7.81147321,2.39936889 L7.76963393,2.44102222 C7.78407143,2.42664889 7.79541518,2.41212889 7.80823214,2.39775556 L7.81147321,2.39936889 L8.81870982,1.39660889 L9.62161161,2.19594222 L8.614375,3.19870222 Z" fill="#EEF0F8" fill-rule="nonzero"></path>
                        <polygon fill="#A3A6B6" fill-rule="nonzero" points="3.05667411 8.73008889 1.65358482 9.32922222 2.25377232 7.93236889 7.24354911 2.96638222 8.04483036 3.76410222"></polygon>
                        <path d="M7.81147321,2.39936889 L7.76963393,2.44102222 C7.78407143,2.42664889 7.79541518,2.41212889 7.80823214,2.39775556 L7.81147321,2.39936889 Z" fill="#000000"></path>
                        <path d="M8.61599554,3.20031556 C8.60155804,3.21307556 8.58697321,3.22598222 8.57253571,3.24035556 L8.614375,3.19870222 L8.61599554,3.20031556 Z" fill="#000000"></path>
                    </g>
                    <g transform="translate(7.000000, 2.000000)" fill="#000000" id="Path">
                        <path d="M0.129375,0.19152 L0.076125,0.244533333 C0.0945,0.22624 0.1089375,0.20776 0.12525,0.189466667 L0.129375,0.19152 Z"></path>
                        <path d="M1.1533125,1.21090667 C1.1349375,1.22714667 1.116375,1.24357333 1.098,1.26186667 L1.15125,1.20885333 L1.1533125,1.21090667 Z"></path>
                    </g>
                    <path d="M10.4350484,13 L0.565099372,13 C0.253060457,13 0,12.7760921 0,12.5 C0,12.2239079 0.252912641,12 0.565099372,12 L10.4349006,12 C10.7469395,12 11,12.2239079 11,12.5 C11,12.7760921 10.7470874,13 10.4350484,13 Z" id="Path" fill="#A3A6B6"></path>
                </g>
                <rect id="Rectangle" stroke="#A3A6B6" x="0.5" y="0.5" width="21" height="20" rx="4"></rect>
            </g>
        </g>
    </g>
</svg>