<?xml version="1.0" encoding="UTF-8"?>
<svg width="19px" height="19px" viewBox="0 0 19 19" version="1.1" xmlns="http://www.w3.org/2000/svg" xmlns:xlink="http://www.w3.org/1999/xlink">
    <!-- Generator: Sketch 52.3 (67297) - http://www.bohemiancoding.com/sketch -->
    <title>Mistake</title>
    <desc>Created with Sketch.</desc>
    <defs>
        <linearGradient x1="50%" y1="96.4008309%" x2="50%" y2="1.42250723%" id="linearGradient-1">
            <stop stop-color="#FF718F" offset="0%"></stop>
            <stop stop-color="#FF7B7E" offset="56.3403179%"></stop>
            <stop stop-color="#FF7C7B" offset="77.3369762%"></stop>
            <stop stop-color="#FF7E78" offset="88.8750903%"></stop>
            <stop stop-color="#FF8174" offset="100%"></stop>
        </linearGradient>
    </defs>
    <g id="Page-1" stroke="none" stroke-width="1" fill="none" fill-rule="evenodd">
        <g id="Artboard">
            <g id="Mistake">
                <rect id="Rectangle" fill="url(#linearGradient-1)" x="0" y="0" width="19" height="19" rx="9.5"></rect>
                <g id="alert" transform="translate(8.142857, 2.714286)" fill="#FFFFFF" fill-rule="nonzero">
                    <path d="M1.35714286,12.4857143 C0.790498704,12.4857143 0.331142857,12.0263584 0.331142857,11.4597143 C0.331142857,10.8930701 0.790498704,10.4337143 1.35714286,10.4337143 C1.92378701,10.4337143 2.38314286,10.8930701 2.38314286,11.4597143 C2.38314286,12.0263584 1.92378701,12.4857143 1.35714286,12.4857143 Z" id="Path"></path>
                    <path d="M2.38314286,8.03971429 C2.38314283,8.60635842 1.92378699,9.06571424 1.35714286,9.06571424 C0.790498721,9.06571424 0.331142881,8.60635842 0.331142857,8.03971429 L0.331142857,2.11171429 C0.331142857,1.54507013 0.790498704,1.08571429 1.35714286,1.08571429 C1.92378701,1.08571429 2.38314286,1.54507013 2.38314286,2.11171429 L2.38314286,8.03971429 Z" id="Path"></path>
                </g>
            </g>
        </g>
    </g>
</svg>