<?xml version="1.0" encoding="UTF-8"?>
<svg width="23px" height="23px" viewBox="0 0 23 23" version="1.1" xmlns="http://www.w3.org/2000/svg" xmlns:xlink="http://www.w3.org/1999/xlink">
    <!-- Generator: Sketch 52.3 (67297) - http://www.bohemiancoding.com/sketch -->
    <title>factory icon</title>
    <desc>Created with Sketch.</desc>
    <g id="Page-1" stroke="none" stroke-width="1" fill="none" fill-rule="evenodd">
        <g id="Logo" transform="translate(-4.000000, -4.000000)" fill="#A3A6B6">
            <g id="factory-icon" transform="translate(4.000000, 4.000000)">
                <path d="M18.3545166,3.94778899 C18.3996124,3.98321789 18.4472136,4 18.4948148,4 C18.6070848,4 18.7146572,3.90396904 18.7705573,3.74453899 C18.8501014,3.51611583 18.7837103,3.22709061 18.6296327,3.10775116 C18.5820315,2.98375001 18.723739,2.43087273 18.7924789,2.16608833 C18.9622148,1.50319499 19.2208897,0.499997751 18.6459173,0.0515424813 C18.4918397,-0.0677969667 18.3106733,0.0282339954 18.2300332,0.255724818 C18.150489,0.483215641 18.2168802,0.772240867 18.3709578,0.891580315 C18.4179326,1.01464912 18.2768514,1.56752641 18.207955,1.83231081 C18.0369664,2.49613649 17.7795442,3.50026606 18.3545166,3.94778899 Z" id="Path"></path>
                <path d="M20.0186388,4.3595741 C20.0615735,4.60488344 20.1754438,4.80150542 20.3552717,4.94288599 C20.4039622,4.98221039 20.4560749,5 20.5060099,5 C20.611791,5 20.7101052,4.91666973 20.7648625,4.76124473 C20.8438873,4.53185241 20.7746629,4.26594458 20.6223691,4.1460988 C20.6265693,4.07213148 20.711972,3.87176431 20.7617513,3.75191853 C20.8932,3.44387742 21.0554496,3.06093269 20.9814028,2.64147245 C20.9383125,2.39522682 20.8244422,2.19860484 20.6446143,2.05722427 C20.4916983,1.93737848 20.314826,2.00947321 20.235179,2.23886553 C20.155532,2.46732155 20.2246009,2.73416568 20.3776724,2.85494775 C20.3726945,2.92891507 20.2874473,3.12834595 20.2370457,3.24819173 C20.1063749,3.55716914 19.944592,3.93917757 20.0186388,4.3595741 Z" id="Path"></path>
                <path d="M0.25,14.0674347 C0.096,14.1571804 0,14.3214224 0,14.5004137 L0,22.5000243 C0,22.7760109 0.224,23 0.5,23 L7,23 L7,17.6312613 L0.748,14.0664348 C0.593,13.9776891 0.403,13.9776891 0.25,14.0674347 Z" id="Path"></path>
                <path d="M8.23427419,14.0666946 C8.09032258,14.1564476 8,14.3207032 8,14.4997094 L8,23 L14.6528226,23 L15,17.8425737 L8.70188172,14.0656945 C8.55604839,13.9769415 8.37822581,13.9789416 8.23427419,14.0666946 Z" id="Path"></path>
                <path d="M22.9688761,22.3167595 L21.6561554,5.45599367 C21.6367306,5.19899724 21.4451312,5 21.216448,5 L17.684662,5 C17.4559788,5 17.2643794,5.19899724 17.2449546,5.45599367 L16,23 L22.5399849,23 C22.5459448,23 22.5514632,23 22.5585267,23 C22.801337,23 23,22.7760031 23,22.5000069 C23,22.4360078 22.9885217,22.3747587 22.9688761,22.3167595 Z" id="Path"></path>
            </g>
        </g>
    </g>
</svg>