<?xml version="1.0" encoding="UTF-8"?>
<svg width="90px" height="25px" viewBox="0 0 90 25" version="1.1" xmlns="http://www.w3.org/2000/svg" xmlns:xlink="http://www.w3.org/1999/xlink">
    <!-- Generator: Sketch 52.3 (67297) - http://www.bohemiancoding.com/sketch -->
    <title>Faurecia_logo-RVB</title>
    <desc>Created with Sketch.</desc>
    <defs>
        <filter x="-16.9%" y="-90.0%" width="133.8%" height="280.0%" filterUnits="objectBoundingBox" id="filter-1">
            <feOffset dx="0" dy="2" in="SourceAlpha" result="shadowOffsetOuter1"></feOffset>
            <feGaussianBlur stdDeviation="2.5" in="shadowOffsetOuter1" result="shadowBlurOuter1"></feGaussianBlur>
            <feColorMatrix values="0 0 0 0 1   0 0 0 0 1   0 0 0 0 1  0 0 0 0.2 0" type="matrix" in="shadowBlurOuter1" result="shadowMatrixOuter1"></feColorMatrix>
            <feMerge>
                <feMergeNode in="shadowMatrixOuter1"></feMergeNode>
                <feMergeNode in="SourceGraphic"></feMergeNode>
            </feMerge>
        </filter>
    </defs>
    <g id="End-UI" stroke="none" stroke-width="1" fill="none" fill-rule="evenodd">
        <g id="UI-Faurecia" transform="translate(-1241.000000, -31.000000)" fill="#FFFFFF">
            <g id="Top-area">
                <g id="Faurecia_logo-RVB" transform="translate(1246.000000, 34.000000)">
                    <g id="Group" filter="url(#filter-1)" transform="translate(40.000000, 7.500000) scale(-1, 1) rotate(-180.000000) translate(-40.000000, -7.500000) ">
                        <path d="M8.3258438,14.7491629 C7.40059698,14.6597842 6.67281136,14.4723772 6.0945321,14.1782924 C4.78282547,13.5093936 4.09735297,12.3936012 3.98169712,10.7386533 C3.96477187,10.5022321 3.95348837,8.32254464 3.95348837,5.29231771 L3.95348837,0.238095238 L5.265195,0.238095238 L6.57690163,0.238095238 L6.57690163,3.66908482 L6.57690163,7.1000744 L8.65024437,7.1000744 L10.7235871,7.1000744 L10.7235871,8.38309152 L10.7235871,9.66610863 L8.65024437,9.66610863 L6.57690163,9.66610863 L6.57690163,9.97749256 C6.57690163,11.3095238 7.03670417,11.9178757 8.24121757,12.1802455 C8.70948273,12.281157 10.029652,12.2840402 10.7405123,12.1831287 L10.8646308,12.1658296 L10.8646308,13.4084821 L10.8646308,14.6482515 L10.7743628,14.6655506 C10.3681569,14.7433966 8.80257159,14.7981771 8.3258438,14.7491629 Z" id="Path"></path>
                        <polygon id="Path" points="65.1162791 12.4879092 65.1162791 11.1904762 66.4279857 11.1904762 67.7396923 11.1904762 67.7396923 12.4879092 67.7396923 13.7853423 66.4279857 13.7853423 65.1162791 13.7853423"></polygon>
                        <path d="M16.0579263,9.88730338 C13.5219602,9.61340085 11.8604651,7.65860174 11.8604651,4.94840829 C11.8604651,4.00849013 12.0268967,3.23003031 12.379506,2.50346781 C13.0508741,1.12530561 14.2582084,0.266116619 15.8378981,0.038345042 C16.2977007,-0.027968202 17.1975596,-0.00490272583 17.6235117,0.0815928099 C18.2977007,0.219985667 18.8195624,0.473705905 19.3188572,0.909066768 L19.5050349,1.06764192 L19.5050349,0.649580161 L19.5050349,0.228635221 L20.7321153,0.228635221 L21.9591957,0.228635221 L21.9591957,4.94264192 L21.9591957,9.65664861 L20.7321153,9.65664861 L19.5050349,9.65664861 L19.5050349,9.23570367 L19.5050349,8.81475873 L19.3301407,8.97910025 C18.8421294,9.43176022 18.1933283,9.73161141 17.4599009,9.84405561 C17.1016499,9.89883611 16.379506,9.92190159 16.0579263,9.88730338 Z M17.6714665,7.49714341 C18.3625808,7.2924373 18.9211139,6.81959504 19.2229475,6.18241126 C19.4063043,5.79606454 19.4514383,5.6173071 19.4683636,5.16753031 C19.4937514,4.55341201 19.3978417,4.08633611 19.1496047,3.6048443 C18.8167416,2.95901096 18.2948798,2.54094921 17.569915,2.34489266 C17.4232296,2.30452808 17.2737232,2.29299534 16.9662479,2.29299534 C16.4754158,2.29299534 16.2864172,2.33335992 15.8802112,2.53518284 C15.3837373,2.78313671 15.0706203,3.10317019 14.8195624,3.61637704 C14.5938925,4.08345293 14.5572211,4.26509355 14.5572211,4.92822599 C14.5544002,5.42701692 14.5628629,5.51927882 14.6192803,5.74993358 C14.8675173,6.72156677 15.4824679,7.33856826 16.402073,7.53750799 C16.6841605,7.60093805 17.3978417,7.57787257 17.6714665,7.49714341 Z" id="Shape" fill-rule="nonzero"></path>
                        <path d="M73.9631459,9.87202381 C71.7402968,9.65578497 70.1323984,8.06426711 69.8136396,5.76060268 C69.7515803,5.30794271 69.7515803,4.49200149 69.8164604,4.06529018 C69.9857129,2.92066592 70.3919188,2.06147693 71.1112418,1.3233817 C71.7487594,0.671781994 72.4652616,0.285435268 73.4102545,0.0807291667 C73.7374759,0.00864955357 73.8192813,0.00288318452 74.4426946,-4.54747351e-13 C75.1845846,-4.54747351e-13 75.3820458,0.0259486607 75.8672362,0.187406994 C76.3552475,0.351748512 76.769916,0.593936012 77.1874054,0.962983631 L77.4187171,1.17057292 L77.4187171,0.69484747 L77.4187171,0.216238839 L78.6457975,0.216238839 L79.8728779,0.216238839 L79.8728779,4.93024554 L79.8728779,9.64425223 L78.6457975,9.64425223 L77.4187171,9.64425223 L77.4187171,9.18294271 L77.4187171,8.71875 L77.2043307,8.90904018 C76.3524266,9.67020089 75.2522855,9.99600074 73.9631459,9.87202381 Z M75.4074336,7.52222842 C76.1662489,7.36365327 76.7981247,6.86486235 77.1253462,6.17001488 C77.3284491,5.74330357 77.3735831,5.52994792 77.3707623,4.9734933 C77.3707623,4.55543155 77.3622996,4.46316964 77.3002404,4.22386533 C77.1591967,3.68470982 76.9363476,3.2983631 76.5639922,2.93508185 C75.7826099,2.18257068 74.5357834,2.04706101 73.602074,2.61216518 C72.7840204,3.10807292 72.3270387,4.16043527 72.4511572,5.27334449 C72.5329625,6.00279018 72.7332446,6.46698289 73.1620176,6.90811012 C73.3707623,7.12434896 73.4412841,7.17912946 73.6979837,7.30598958 C73.8728779,7.39248512 74.0900853,7.47609747 74.231129,7.5078125 C74.5414252,7.57989211 75.1056001,7.58565848 75.4074336,7.52222842 Z" id="Shape" fill-rule="nonzero"></path>
                        <path d="M48.0086594,9.86418798 C46.2794634,9.7315615 44.8915931,8.80317608 44.2032998,7.31833605 C43.8647948,6.58600718 43.7209302,5.87962697 43.7209302,4.95412474 C43.7237511,3.99402429 43.8788992,3.28764409 44.2597173,2.52936656 C44.6856693,1.68747667 45.3288287,1.05317608 46.2174041,0.600516109 C47.1257257,0.14208977 47.9719881,-0.0280181171 49.2329189,0.00369691267 C50.3048512,0.0296455734 51.0636665,0.19975346 51.81684,0.586100186 C52.0368682,0.698544383 52.4120445,0.946498252 52.5728343,1.08489111 L52.6659232,1.16562028 L52.129957,2.09977206 C51.8337652,2.61297891 51.5798865,3.04545659 51.568603,3.05698932 C51.5544986,3.07140525 51.4388428,3.00797519 51.3090826,2.91859647 C50.6772067,2.48611879 50.0566143,2.29006224 49.2075311,2.25258084 C48.2963886,2.21221626 47.5178273,2.42557191 46.9762194,2.85804959 C46.7985043,3.00220882 46.5248795,3.30494319 46.5530882,3.33089185 C46.55873,3.33665822 47.9804507,3.80085093 49.7124676,4.36018873 C51.4444845,4.91952653 52.871847,5.38660242 52.8803096,5.39813516 C52.9113393,5.42985019 52.8408174,5.99207117 52.759012,6.3582356 C52.5474465,7.32986879 52.1891954,8.05643129 51.6306622,8.64460093 C51.1934267,9.10591045 50.7054154,9.41729438 50.1102109,9.62200048 C49.5121855,9.8238234 48.7054154,9.91896849 48.0086594,9.86418798 Z M48.9508315,7.59223858 C49.187785,7.54034126 49.4670515,7.41059795 49.6616919,7.26067236 C49.7914521,7.1597609 50.0678978,6.79359647 50.0678978,6.72151685 C50.0678978,6.70421775 49.1962476,6.38995063 48.129957,6.02090301 C47.0608456,5.64897221 46.1722701,5.34335465 46.1553449,5.3347051 C46.1045692,5.31740599 46.10739,5.46156522 46.1609867,5.77583233 C46.3245974,6.73016641 46.9564733,7.40483159 47.8676157,7.59223858 C48.1214944,7.6441359 48.7110572,7.6441359 48.9508315,7.59223858 Z" id="Shape" fill-rule="nonzero"></path>
                        <path d="M59.1905081,9.87095263 C59.1369115,9.86518626 58.9733008,9.84500397 58.8266153,9.82770486 C58.0678,9.73832614 57.2807761,9.43847495 56.6235123,8.99158135 C56.2737239,8.75516022 55.7123699,8.1814065 55.4697747,7.81812525 C55.2582091,7.49809177 55.0212556,7.00218403 54.9027789,6.63601959 C54.4909312,5.33570337 54.5896618,3.7470687 55.1622993,2.58226215 C55.3823276,2.13248537 55.6136393,1.80668552 55.9747112,1.44052108 C56.7476308,0.647645337 57.77725,0.169036706 59.0071512,0.0277606644 C59.3400144,-0.00972073442 60.2201273,-0.00972073442 60.5670948,0.0306438489 C61.2920596,0.111373016 61.9916364,0.339144593 62.474006,0.656294891 C62.6206914,0.75143998 63.0551061,1.09165575 63.0551061,1.11183805 C63.0551061,1.12337078 61.9380398,3.01185665 61.9098311,3.05222123 C61.9041893,3.0579876 61.7941752,2.99167435 61.6672359,2.90517882 C61.0551061,2.48711706 60.5304235,2.34007465 59.7687874,2.37178968 C58.5529905,2.423687 57.6672359,3.09835218 57.3795067,4.1939623 C57.2920596,4.53417808 57.2892387,5.21460962 57.3795067,5.57789087 C57.6841611,6.81766022 58.7899439,7.5471059 60.1552472,7.41159623 C60.7166012,7.35681572 61.1199862,7.21842287 61.5826096,6.92433805 L61.8139213,6.77729563 L61.8534136,6.84072569 C61.8731597,6.87532391 62.1298593,7.33086706 62.4175885,7.84984028 C62.8689284,8.66001513 62.9394503,8.80417435 62.9084206,8.84453894 C62.854824,8.91085218 62.3922006,9.21646974 62.1693515,9.33179712 C61.7208325,9.56245188 61.1792246,9.72967659 60.5896618,9.81617212 C60.29347,9.85941989 59.3907902,9.89690129 59.1905081,9.87095263 Z" id="Path"></path>
                        <path d="M40.3721586,9.81891741 C39.644373,9.7468378 39.2240627,9.66610863 38.7642602,9.50753348 C37.5682094,9.09812128 36.789648,8.28506324 36.4680684,7.11449033 C36.2931741,6.4859561 36.3016368,6.64164807 36.2903533,3.30292039 L36.2790698,0.238095238 L37.5907764,0.238095238 L38.902483,0.238095238 L38.9109456,3.07226562 L38.9194083,5.90355283 L38.992751,6.12267485 C39.1337947,6.54650298 39.3707482,6.82040551 39.7656706,7.01357887 C40.1916227,7.22405134 40.5921868,7.29613095 41.4525535,7.32207961 L42.0928921,7.33937872 L42.0928921,8.57049851 L42.0928921,9.8016183 L41.8756847,9.8218006 C41.6612983,9.8390997 40.5583363,9.8390997 40.3721586,9.81891741 Z" id="Path"></path>
                        <polygon id="Path" points="0 8.18777902 0 6.9047619 1.19887165 6.9047619 2.3977433 6.9047619 2.3977433 8.18777902 2.3977433 9.47079613 1.19887165 9.47079613 0 9.47079613"></polygon>
                        <path d="M24.6511628,6.96487003 C24.6511628,5.29838938 24.6624463,4.15953149 24.6793715,3.97500768 C24.7639978,3.13023461 24.9924886,2.42673759 25.387411,1.81261929 C25.5961557,1.48393625 26.0700626,0.993794882 26.3718962,0.786205597 C26.9671007,0.379676579 27.6836028,0.125956341 28.5016564,0.027928067 C28.8768327,-0.0153197009 29.703349,-0.00667014733 30.0869879,0.0423439896 C32.2788074,0.330662442 33.613081,1.7549556 33.8190048,4.02113863 C33.8359301,4.20854563 33.8472136,5.43101586 33.8472136,6.99946825 L33.8472136,9.65776438 L32.5355069,9.65776438 L31.2266212,9.65776438 L31.2153377,6.9706364 C31.2068751,4.36423759 31.2040542,4.27197569 31.1476367,4.02113863 C31.0658313,3.66074057 30.9642799,3.39837078 30.8119526,3.16771601 C30.6483419,2.91687896 30.4790894,2.76407018 30.1941811,2.62279414 C29.9177354,2.48440128 29.6243645,2.42097122 29.2491882,2.42097122 C28.106734,2.42097122 27.455112,3.06103819 27.3027848,4.32387301 C27.2858595,4.4737986 27.274576,5.54057688 27.274576,7.11191244 L27.274576,9.65776438 L25.9628694,9.65776438 L24.6511628,9.65776438 L24.6511628,6.96487003 Z" id="Path"></path>
                        <polygon id="Path" points="65.1162791 4.95210193 65.1162791 0.238095238 66.4279857 0.238095238 67.7396923 0.238095238 67.7396923 4.95210193 67.7396923 9.66610863 66.4279857 9.66610863 65.1162791 9.66610863"></polygon>
                    </g>
                </g>
            </g>
        </g>
    </g>
</svg>