<?xml version="1.0" encoding="UTF-8"?>
<svg width="105px" height="20px" viewBox="0 0 105 20" version="1.1" xmlns="http://www.w3.org/2000/svg" xmlns:xlink="http://www.w3.org/1999/xlink">
    <!-- Generator: Sketch 52.3 (67297) - http://www.bohemiancoding.com/sketch -->
    <title>Faurecia_logo-RVB</title>
    <desc>Created with Sketch.</desc>
    <g id="End-UI" stroke="none" stroke-width="1" fill="none" fill-rule="evenodd">
        <g id="Log-in-Faurecia" transform="translate(-631.000000, -197.000000)" fill="#000000">
            <g id="Log-in-block" transform="translate(369.000000, 132.000000)">
                <g id="Faurecia_logo-RVB" transform="translate(262.000000, 65.000000)">
                    <g id="Group" transform="translate(52.500000, 10.000000) scale(-1, 1) rotate(-180.000000) translate(-52.500000, -10.000000) ">
                        <path d="M10.92767,19.6655506 C9.71328353,19.546379 8.75806491,19.296503 7.99907338,18.9043899 C6.27745842,18.0125248 5.37777577,16.5248016 5.22597747,14.3182044 C5.20376308,14.0029762 5.18895349,11.0967262 5.18895349,7.05642361 L5.18895349,0.317460317 L6.91056844,0.317460317 L8.63218339,0.317460317 L8.63218339,4.8921131 L8.63218339,9.46676587 L11.3534457,9.46676587 L14.0747081,9.46676587 L14.0747081,11.1774554 L14.0747081,12.8881448 L11.3534457,12.8881448 L8.63218339,12.8881448 L8.63218339,13.3033234 C8.63218339,15.0793651 9.23567422,15.890501 10.8165981,16.2403274 C11.4311961,16.374876 13.1639182,16.3787202 14.0969225,16.2441716 L14.259828,16.2211062 L14.259828,17.8779762 L14.259828,19.531002 L14.1413512,19.5540675 C13.608206,19.6578621 11.5533752,19.7309028 10.92767,19.6655506 Z" id="Path"></path>
                        <polygon id="Path" points="85.4651163 16.6505456 85.4651163 14.9206349 87.1867312 14.9206349 88.9083462 14.9206349 88.9083462 16.6505456 88.9083462 18.3804563 87.1867312 18.3804563 85.4651163 18.3804563"></polygon>
                        <path d="M21.0760283,13.1830712 C17.7475727,12.8178678 15.5668605,10.211469 15.5668605,6.59787771 C15.5668605,5.34465351 15.7853019,4.30670708 16.2481016,3.33795708 C17.1292723,1.50040748 18.7138985,0.354822159 20.7872413,0.0511267227 C21.3907321,-0.037290936 22.571797,-0.00653696778 23.1308591,0.108790413 C24.0157321,0.293314223 24.7006757,0.631607873 25.3560001,1.21208902 L25.6003583,1.42352256 L25.6003583,0.866106881 L25.6003583,0.304846961 L27.2109014,0.304846961 L28.8214444,0.304846961 L28.8214444,6.59018922 L28.8214444,12.8755315 L27.2109014,12.8755315 L25.6003583,12.8755315 L25.6003583,12.3142716 L25.6003583,11.7530116 L25.3708097,11.9721337 C24.7302949,12.5756803 23.8787434,12.9754819 22.91612,13.1254075 C22.4459155,13.1984482 21.4981016,13.2292021 21.0760283,13.1830712 Z M23.1937998,9.99619121 C24.1008873,9.72324974 24.833962,9.09279339 25.2301186,8.24321502 C25.4707744,7.72808605 25.5300128,7.48974279 25.5522272,6.89004041 C25.5855488,6.07121601 25.4596672,5.44844815 25.1338562,4.80645906 C24.6969733,3.94534795 24.0120297,3.38793228 23.0605135,3.12652355 C22.8679888,3.0727041 22.6717617,3.05732712 22.2682004,3.05732712 C21.6239832,3.05732712 21.3759225,3.11114656 20.8427772,3.38024379 C20.1911552,3.71084894 19.7801891,4.13756025 19.4506757,4.82183605 C19.1544839,5.44460391 19.1063527,5.68679141 19.1063527,6.57096799 C19.1026503,7.23602256 19.1137575,7.35903843 19.1878055,7.66657811 C19.5136165,8.96208902 20.3207392,9.78475768 21.5277208,10.0500107 C21.8979606,10.1345841 22.8346672,10.1038301 23.1937998,9.99619121 Z" id="Shape" fill-rule="nonzero"></path>
                        <path d="M97.076629,13.1626984 C94.1591396,12.87438 92.0487729,10.7523562 91.6304019,7.68080357 C91.5489492,7.07725694 91.5489492,5.98933532 91.6341043,5.4203869 C91.8562482,3.89422123 92.3893935,2.74863591 93.3335049,1.76450893 C94.1702468,0.895709325 95.1106558,0.380580357 96.350959,0.107638889 C96.7804372,0.0115327381 96.8878067,0.00384424603 97.7060366,-4.54747351e-13 C98.6797672,-4.54747351e-13 98.9389351,0.0345982143 99.5757475,0.249875992 C100.216262,0.468998016 100.760515,0.791914683 101.30847,1.28397817 L101.612066,1.56076389 L101.612066,0.926463294 L101.612066,0.288318452 L103.222609,0.288318452 L104.833152,0.288318452 L104.833152,6.57366071 L104.833152,12.859003 L103.222609,12.859003 L101.612066,12.859003 L101.612066,12.2439236 L101.612066,11.625 L101.330684,11.8787202 C100.21256,12.8936012 98.7686248,13.328001 97.076629,13.1626984 Z M98.9722566,10.0296379 C99.9682016,9.81820437 100.797539,9.1531498 101.227017,8.22668651 C101.49359,7.6577381 101.552828,7.37326389 101.549125,6.6313244 C101.549125,6.07390873 101.538018,5.95089286 101.456566,5.63182044 C101.271446,4.91294643 100.978956,4.39781746 100.49024,3.91344246 C99.4646755,2.91009425 97.8282157,2.72941468 96.6027221,3.4828869 C95.5290267,4.14409722 94.9292383,5.54724702 95.0921438,7.03112599 C95.1995133,8.00372024 95.4623836,8.62264385 96.025148,9.21081349 C96.2991255,9.49913194 96.3916854,9.57217262 96.7286036,9.74131944 C96.9581523,9.85664683 97.2432369,9.96812996 97.4283568,10.0104167 C97.8356205,10.1065228 98.5761001,10.1142113 98.9722566,10.0296379 Z" id="Shape" fill-rule="nonzero"></path>
                        <path d="M63.0113655,13.1522506 C60.7417957,12.9754153 58.920216,11.7375681 58.0168309,9.7577814 C57.5725432,8.78134291 57.3837209,7.83950263 57.3837209,6.60549965 C57.3874233,5.32536572 57.5910552,4.38352545 58.0908789,3.37248874 C58.649941,2.2499689 59.4940876,1.40423477 60.6603429,0.800688145 C61.852515,0.189453026 62.9632343,-0.0373574895 64.6182061,0.00492921689 C66.0251173,0.0395274312 67.0210623,0.266337947 68.0096025,0.781466915 C68.2983895,0.931392511 68.7908084,1.26199767 69.001845,1.44652148 L69.1240242,1.55416037 L68.4205686,2.79969608 C68.0318168,3.48397188 67.698601,4.06060878 67.6837915,4.07598576 C67.6652795,4.09520699 67.5134812,4.01063358 67.3431709,3.89146195 C66.5138338,3.31482505 65.6993063,3.05341632 64.5848845,3.00344112 C63.3890101,2.94962168 62.3671483,3.23409588 61.6562879,3.81073279 C61.4230369,4.00294509 61.0639043,4.40659092 61.1009283,4.44118914 C61.1083331,4.44887763 62.9743415,5.06780124 65.2476137,5.81358497 C67.520886,6.5593687 69.3942992,7.18213656 69.4054064,7.19751354 C69.4461328,7.23980025 69.3535728,7.98942822 69.2462033,8.47764747 C68.9685235,9.77315838 68.498319,10.7419084 67.7652442,11.5261346 C67.1913726,12.1412139 66.5508577,12.5563925 65.7696518,12.829334 C64.9847435,13.0984312 63.9258577,13.2252913 63.0113655,13.1522506 Z M64.2479663,10.1229848 C64.5589678,10.0537883 64.9255051,9.88079727 65.1809706,9.68089648 C65.3512809,9.54634787 65.7141159,9.05812862 65.7141159,8.96202247 C65.7141159,8.93895699 64.5700749,8.51993418 63.1705686,8.02787069 C61.7673599,7.53196295 60.6011046,7.12447287 60.5788902,7.11294013 C60.512247,7.08987465 60.5159494,7.28208695 60.586295,7.70110977 C60.801034,8.97355521 61.6303711,9.87310878 62.8262456,10.1229848 C63.1594614,10.1921812 63.9332625,10.1921812 64.2479663,10.1229848 Z" id="Shape" fill-rule="nonzero"></path>
                        <path d="M77.6875419,13.1612702 C77.6171963,13.1535817 77.4024572,13.126672 77.2099326,13.1036065 C76.2139876,12.9844349 75.1810186,12.5846333 74.3183599,11.9887751 C73.8592626,11.673547 73.1224854,10.908542 72.8040792,10.424167 C72.5263994,9.99745569 72.215398,9.33624537 72.0598973,8.84802612 C71.5193472,7.11427116 71.6489311,4.9960916 72.4005179,3.4430162 C72.6893049,2.84331382 72.9929015,2.40891402 73.4668084,1.92069477 C74.4812654,0.863527116 75.8326406,0.225382275 77.446886,0.0370142192 C77.8837689,-0.0129609792 79.038917,-0.0129609792 79.494312,0.0408584652 C80.4458282,0.148497354 81.3640228,0.452192791 81.9971328,0.875059854 C82.1896575,1.00191997 82.7598268,1.455541 82.7598268,1.48245073 C82.7598268,1.49782771 81.2936773,4.01580886 81.2566533,4.06962831 C81.2492485,4.0773168 81.104855,3.98889914 80.9382471,3.87357176 C80.1348268,3.31615608 79.4461808,3.12009954 78.4465334,3.16238624 C76.8508,3.23158267 75.6882471,4.13113624 75.3106025,5.59194974 C75.1958282,6.04557077 75.1921258,6.95281283 75.3106025,7.43718783 C75.7104615,9.09021362 77.1618014,10.0628079 78.9537619,9.88212831 C79.690539,9.80908763 80.2199819,9.62456382 80.8271752,9.23245073 L81.1307718,9.03639418 L81.1826053,9.12096759 C81.2085221,9.16709854 81.5454403,9.77448942 81.9230849,10.4664537 C82.5154685,11.5466868 82.6080285,11.7388991 82.5673021,11.7927186 C82.4969565,11.8811362 81.8897633,12.2886263 81.5972739,12.4423962 C81.0085926,12.7499358 80.2977323,12.9729021 79.5239311,13.0882295 C79.1351794,13.1458932 77.9504121,13.1958684 77.6875419,13.1612702 Z" id="Path"></path>
                        <path d="M52.9884582,13.0918899 C52.0332396,12.9957837 51.4815823,12.8881448 50.8780915,12.6767113 C49.3082748,12.1308284 48.2864131,11.046751 47.8643397,9.4859871 C47.6347911,8.64794147 47.6458983,8.85553075 47.6310887,4.40389385 L47.6162791,0.317460317 L49.337894,0.317460317 L51.059509,0.317460317 L51.0706162,4.09635417 L51.0817234,7.87140377 L51.1779857,8.16356647 C51.3631056,8.72867063 51.674107,9.09387401 52.1924427,9.35143849 C52.7515047,9.63206845 53.2772452,9.7281746 54.4064765,9.76277282 L55.2469208,9.78583829 L55.2469208,11.4273313 L55.2469208,13.0688244 L54.9618362,13.0957341 C54.680454,13.1187996 53.2328164,13.1187996 52.9884582,13.0918899 Z" id="Path"></path>
                        <polygon id="Path" points="0 10.9170387 0 9.20634921 1.57351904 9.20634921 3.14703808 9.20634921 3.14703808 10.9170387 3.14703808 12.6277282 1.57351904 12.6277282 0 12.6277282"></polygon>
                        <path d="M32.3546512,9.28649337 C32.3546512,7.06451917 32.3694608,5.54604199 32.3916751,5.30001024 C32.5027471,4.17364615 32.8026413,3.23565012 33.320977,2.41682572 C33.5949544,1.97858167 34.2169572,1.32505984 34.6131138,1.04827413 C35.3943197,0.506235438 36.3347287,0.167941788 37.4084241,0.0372374226 C37.900843,-0.0204262679 38.9856455,-0.00889352978 39.4891716,0.0564586528 C42.3659347,0.440883256 44.1171688,2.3399408 44.3874438,5.36151818 C44.4096582,5.61139417 44.4244678,7.24135449 44.4244678,9.33262433 L44.4244678,12.8770192 L42.7028529,12.8770192 L40.9849403,12.8770192 L40.9701307,9.29418187 C40.9590235,5.81898345 40.9553211,5.69596758 40.8812732,5.36151818 C40.7739036,4.88098742 40.6406173,4.53116103 40.4406878,4.22362135 C40.2259488,3.88917195 40.0038049,3.68542691 39.6298627,3.49705885 C39.2670277,3.31253504 38.8819784,3.22796163 38.3895595,3.22796163 C36.8900884,3.22796163 36.0348345,4.08138425 35.834905,5.76516401 C35.8126907,5.9650648 35.7978811,7.38743584 35.7978811,9.48254992 L35.7978811,12.8770192 L34.0762661,12.8770192 L32.3546512,12.8770192 L32.3546512,9.28649337 Z" id="Path"></path>
                        <polygon id="Path" points="85.4651163 6.60280258 85.4651163 0.317460317 87.1867312 0.317460317 88.9083462 0.317460317 88.9083462 6.60280258 88.9083462 12.8881448 87.1867312 12.8881448 85.4651163 12.8881448"></polygon>
                    </g>
                </g>
            </g>
        </g>
    </g>
</svg>