<?xml version="1.0" encoding="UTF-8"?>
<svg width="24px" height="20px" viewBox="0 0 24 20" version="1.1" xmlns="http://www.w3.org/2000/svg" xmlns:xlink="http://www.w3.org/1999/xlink">
    <!-- Generator: sketchtool 52.3 (67297) - http://www.bohemiancoding.com/sketch -->
    <title>239D8900-CAA6-4D60-BDBE-772C912BA7DC</title>
    <desc>Created with sketchtool.</desc>
    <defs>
        <linearGradient x1="100%" y1="55.6621132%" x2="0%" y2="55.6621132%" id="linearGradient-1">
            <stop stop-color="#089EFE" offset="0%"></stop>
            <stop stop-color="#2255F9" offset="100%"></stop>
        </linearGradient>
    </defs>
    <g id="Library" stroke="none" stroke-width="1" fill="none" fill-rule="evenodd">
        <g id="UI-Icons" transform="translate(-914.000000, -294.000000)">
            <g id="folder2-icn" transform="translate(914.000000, 294.000000)">
                <path d="M21.6,3.84615385 C22.96,3.84615385 24,4.84615385 24,6.15384615 L24,17.6923077 C24,19 22.96,20 21.6,20 L2.4,20 C1.04,20 0,19 0,17.6923077 L0,2.30769231 C0,1 1.04,0 2.4,0 L8.48,0 C9.52,0 10.4,0.538461538 10.8,1.46153846 L11.6,3.38461538 C11.68,3.69230769 12,3.84615385 12.32,3.84615385 L21.6,3.84615385 Z" id="Combined-Shape" fill="url(#linearGradient-1)" fill-rule="nonzero"></path>
                <rect id="Rectangle" fill="#FFFFFF" x="11" y="7" width="2" height="10" rx="1"></rect>
                <rect id="Rectangle" fill="#FFFFFF" transform="translate(12.000000, 12.000000) rotate(-270.000000) translate(-12.000000, -12.000000) " x="11" y="7" width="2" height="10" rx="1"></rect>
            </g>
        </g>
    </g>
</svg>