<svg xmlns="http://www.w3.org/2000/svg" width="13.399" height="16.079" viewBox="0 0 13.399 16.079">
  <g id="Groupe_288" data-name="Groupe 288" transform="translate(-10 -5)" opacity="0.502">
    <path id="Tracé_176" data-name="Tracé 176" d="M14.02,21.079h8.933a.447.447,0,0,0,.447-.447V11.7a.455.455,0,0,0-.131-.316L17.016,5.131A.447.447,0,0,0,16.7,5H10.447A.447.447,0,0,0,10,5.447V17.953a.447.447,0,0,0,.447.447h1.34v1.34a.447.447,0,0,0,.447.447h1.34v.447A.447.447,0,0,0,14.02,21.079ZM12.68,7.68H18.3l.893.893H14.02a.447.447,0,0,0-.447.447V19.293H12.68ZM10.893,5.893h5.621l.893.893H12.233a.447.447,0,0,0-.447.447V17.506h-.893ZM21.166,20.186h-6.7V9.466h5.36V11.7a.447.447,0,0,0,.447.447h2.233v8.04Zm.708-8.933H20.72V10.1Z" fill="#4e5983"/>
    <path id="Tracé_177" data-name="Tracé 177" d="M45.806,65h-5.36a.447.447,0,0,0,0,.893h5.36a.447.447,0,0,0,0-.893Z" transform="translate(-24.64 -49.28)" fill="#4e5983"/>
    <path id="Tracé_178" data-name="Tracé 178" d="M45.806,55h-5.36a.447.447,0,0,0,0,.893h5.36a.447.447,0,0,0,0-.893Z" transform="translate(-24.64 -41.067)" fill="#4e5983"/>
  </g>
</svg>
