<svg xmlns="http://www.w3.org/2000/svg" width="21.922" height="14.947" viewBox="0 0 21.922 14.947">
<style>
    svg {
    }

    </style>
  <g id="Groupe_16" data-name="Groupe 16" transform="translate(-6 -20)">
    <path id="Tracé_46" data-name="Tracé 46" d="M10.982,20a2.491,2.491,0,1,0,2.491,2.491A2.5,2.5,0,0,0,10.982,20Zm11.957,0a2.491,2.491,0,1,0,2.491,2.491A2.5,2.5,0,0,0,22.939,20Zm-5.979.5a2.989,2.989,0,1,0,2.989,2.989A3,3,0,0,0,16.961,20.5Zm-5.979.5a1.495,1.495,0,1,1-1.495,1.495A1.487,1.487,0,0,1,10.982,21Zm11.957,0a1.495,1.495,0,1,1-1.495,1.495A1.487,1.487,0,0,1,22.939,21Zm-5.979.5a1.993,1.993,0,1,1-1.993,1.993A1.985,1.985,0,0,1,16.961,21.495Zm-5.73,4.235a7.267,7.267,0,0,0-3.6.856A2.872,2.872,0,0,0,6,28.968v2.989a.5.5,0,0,0,.5.5h4.733v1.993a.5.5,0,0,0,.5.5H22.192a.5.5,0,0,0,.5-.5V32.455h4.733a.5.5,0,0,0,.5-.5V28.968a2.873,2.873,0,0,0-1.635-2.382,7.268,7.268,0,0,0-3.6-.856,5.9,5.9,0,0,0-4.71,1.8c-.331-.033-.672-.055-1.02-.055s-.689.021-1.02.055A5.9,5.9,0,0,0,11.231,25.73Zm0,1a5.97,5.97,0,0,1,3.5,1,6.715,6.715,0,0,0-1.713.654,3.079,3.079,0,0,0-1.783,2.577v.5H7V28.968A1.886,1.886,0,0,1,8.133,27.45,6.367,6.367,0,0,1,11.231,26.726Zm11.459,0a6.369,6.369,0,0,1,3.1.724,1.886,1.886,0,0,1,1.136,1.518v2.491H22.69v-.5a3.079,3.079,0,0,0-1.783-2.577A6.715,6.715,0,0,0,19.2,27.73,5.97,5.97,0,0,1,22.69,26.726Zm-5.73,1.744a7.242,7.242,0,0,1,3.456.786,2.073,2.073,0,0,1,1.277,1.7V33.95H12.228V30.961a2.073,2.073,0,0,1,1.277-1.7A7.242,7.242,0,0,1,16.961,28.47Z" transform="translate(0 0)" fill="#4390ef"/>
  </g>
</svg>
