<?xml version="1.0" encoding="UTF-8"?>
<svg width="142px" height="32px" viewBox="0 0 142 32" version="1.1" xmlns="http://www.w3.org/2000/svg" xmlns:xlink="http://www.w3.org/1999/xlink">
    <!-- Generator: Sketch 52.3 (67297) - http://www.bohemiancoding.com/sketch -->
    <title>IBM Blockchain</title>
    <desc>Created with Sketch.</desc>
    <defs>
        <text id="text-1" font-family="Metropolis-SemiBold, Metropolis" font-size="9" font-weight="500" fill="#8686A5">
            <tspan x="66" y="9">Powered by </tspan>
            <tspan x="66" y="20">IBM Blockchain</tspan>
        </text>
        <filter x="-12.2%" y="-29.5%" width="124.5%" height="177.3%" filterUnits="objectBoundingBox" id="filter-2">
            <feOffset dx="0" dy="2" in="SourceAlpha" result="shadowOffsetOuter1"></feOffset>
            <feGaussianBlur stdDeviation="2.5" in="shadowOffsetOuter1" result="shadowBlurOuter1"></feGaussianBlur>
            <feColorMatrix values="0 0 0 0 1   0 0 0 0 1   0 0 0 0 1  0 0 0 0.1 0" type="matrix" in="shadowBlurOuter1"></feColorMatrix>
        </filter>
        <filter x="-23.7%" y="-61.4%" width="147.4%" height="222.7%" filterUnits="objectBoundingBox" id="filter-3">
            <feOffset dx="0" dy="2" in="SourceAlpha" result="shadowOffsetOuter1"></feOffset>
            <feGaussianBlur stdDeviation="2.5" in="shadowOffsetOuter1" result="shadowBlurOuter1"></feGaussianBlur>
            <feColorMatrix values="0 0 0 0 1   0 0 0 0 1   0 0 0 0 1  0 0 0 0.1 0" type="matrix" in="shadowBlurOuter1" result="shadowMatrixOuter1"></feColorMatrix>
            <feMerge>
                <feMergeNode in="shadowMatrixOuter1"></feMergeNode>
                <feMergeNode in="SourceGraphic"></feMergeNode>
            </feMerge>
        </filter>
    </defs>
    <g id="End-UI" stroke="none" stroke-width="1" fill="none" fill-rule="evenodd">
        <g id="UI-Faurecia" transform="translate(-35.000000, -27.000000)" fill="#8686A5">
            <g id="Top-area">
                <g id="Content" transform="translate(40.000000, 26.000000)">
                    <g id="IBM-Blockchain" transform="translate(0.000000, 4.000000)">
                        <g id="Powered-by-IBM-Block" fill-opacity="1">
                            <use filter="url(#filter-2)" xlink:href="#text-1"></use>
                            <use xlink:href="#text-1"></use>
                        </g>
                        <g id="logo-IBM" filter="url(#filter-3)">
                            <polygon id="Path" points="52.2029177 1.76158707 43.533963 1.76158707 44.0681024 0.266632736 52.2029177 0.266632736"></polygon>
                            <path d="M29.0931238,0.266632736 L37.1420953,0.265996856 L37.66924,1.7641306 C37.6724194,1.76222295 29.0963032,1.76603824 29.0963032,1.7641306 C29.0963032,1.76222295 29.0905803,0.266632736 29.0931238,0.266632736 Z" id="Path"></path>
                            <path d="M22.7012561,0.265996856 C24.0277022,0.393808775 25.180553,0.86690364 26.1629879,1.76349471 C26.1629879,1.76349471 11.5739885,1.76540236 11.5739885,1.76349471 C11.5739885,1.76222295 11.5739885,0.265996856 11.5739885,0.265996856 L22.7012561,0.265996856 Z" id="Path"></path>
                            <rect id="Rectangle" x="0.124965636" y="0.265996856" width="10.1352944" height="1.49495434"></rect>
                            <path d="M52.2035536,4.56581873 L42.5407182,4.56581873 C42.5407182,4.56581873 43.0678628,3.07913084 43.0640476,3.07849496 L52.2035536,3.07849496 L52.2035536,4.56581873 Z" id="Path"></path>
                            <polygon id="Path" points="38.6643925 4.56709049 29.0931238 4.56709049 29.0931238 3.07785908 38.1404272 3.07785908"></polygon>
                            <path d="M27.2993058,3.07785908 C27.4913416,3.56875859 27.7189867,3.98843952 27.7189867,4.56518285 L11.5765321,4.56518285 L11.5765321,3.07785908 L27.2993058,3.07785908 Z" id="Path"></path>
                            <rect id="Rectangle" x="0.124965636" y="3.07785908" width="10.1352944" height="1.48732378"></rect>
                            <polygon id="Path" points="41.5525603 7.37704508 42.0822485 5.88272662 49.3376416 5.88463426 49.3376416 7.37386568"></polygon>
                            <polygon id="Path" points="39.1304927 5.88272662 39.6589091 7.37704508 31.9469541 7.37704508 31.9469541 5.88272662"></polygon>
                            <path d="M27.8474345,5.88209074 C27.8474345,6.39461018 27.7832106,6.92811366 27.6337788,7.37704508 L23.2137755,7.37704508 L23.2137755,5.88209074 L27.8474345,5.88209074 Z" id="Path"></path>
                            <rect id="Rectangle" x="2.95018134" y="5.88908542" width="4.35577934" height="1.48732378"></rect>
                            <rect id="Rectangle" x="14.5092115" y="5.88209074" width="4.34878465" height="1.49431846"></rect>
                            <path d="M36.230879,8.99090901 C36.230879,8.99090901 36.2321508,10.1221399 36.230879,10.1240475 L31.9469541,10.1240475 L31.9469541,8.6367183 L40.1103841,8.63672374 L40.6171806,10.0235784 C40.62036,10.0248502 41.1061724,8.63354434 41.1074442,8.63672374 L49.335098,8.6367183 L49.335098,10.1240475 L45.0721572,10.1240475 C45.0721572,10.1221399 45.0696137,8.99090901 45.0696137,8.99090901 L44.675368,10.1240475 L36.6244888,10.1221399 L36.230879,8.99090901 Z" id="Path"></path>
                            <path d="M14.5085756,8.63608786 L26.9934474,8.63608786 C26.719383,9.13461794 26.2246682,9.73997588 25.7547528,10.1240475 C25.7547528,10.1240475 14.5085756,10.126591 14.5085756,10.1240475 C14.5085756,10.1221399 14.5092115,8.63926726 14.5085756,8.63608786 Z" id="Path"></path>
                            <rect id="Rectangle" x="2.95018134" y="8.63608786" width="4.35577934" height="1.48795966"></rect>
                            <rect id="Rectangle" x="45.0721572" y="11.4409554" width="4.26294083" height="1.48732378"></rect>
                            <path d="M36.230879,11.4409554 L31.9469535,11.4409554 L31.9469541,12.9282792 C31.9450465,12.9276433 36.2321508,12.9289151 36.2321508,12.9282792 C36.2321508,12.9276433 36.2366019,11.4409554 36.230879,11.4409554 Z" id="Path"></path>
                            <path d="M44.2111754,11.4409536 C44.1914632,11.4390478 43.7120095,12.9276433 43.6910254,12.9282792 L37.6190055,12.9314586 C37.6145543,12.9289151 37.085502,11.4390478 37.0848661,11.4409536 L44.2111754,11.4409536 Z" id="Path"></path>
                            <path d="M14.5085756,11.4409554 L25.7331329,11.4409554 C26.2456523,11.867631 26.7085731,12.3947757 27.0716607,12.9282792 C27.0920088,12.9276433 14.5085756,12.9289151 14.5085756,12.9282792 C14.5085756,12.9276433 14.5085756,11.4422272 14.5085756,11.4409554 Z" id="Path"></path>
                            <path d="M7.30596068,12.9282792 L7.30596068,11.4409554 L2.95717603,11.4409554 C2.95717603,11.4409554 2.95844779,12.9276433 2.95717603,12.9276433 C2.95654014,12.9276433 7.30341716,12.9282792 7.30596068,12.9282792 Z" id="Path"></path>
                            <rect id="Rectangle" x="45.0721572" y="14.2451871" width="4.26294083" height="1.48795966"></rect>
                            <rect id="Rectangle" x="31.9469541" y="14.2451871" width="4.28392487" height="1.48795966"></rect>
                            <path d="M42.6939653,15.7401414 C42.6952371,15.7337826 43.2204741,14.2445512 43.2287405,14.2451869 L38.0666651,14.2451871 C38.0571269,14.2451871 38.5957174,15.7337826 38.5957174,15.7337826 C38.5957174,15.7337826 42.6933294,15.7465002 42.6939653,15.7401414 Z" id="Path"></path>
                            <path d="M14.5085756,15.7325108 C14.5085756,15.7388696 14.5085756,14.2451871 14.5085756,14.2451871 L18.9215842,14.2451871 C18.9215842,14.2451871 18.9260354,15.7337826 18.9215842,15.7337826 C18.9177689,15.7337826 14.5085756,15.731875 14.5085756,15.7325108 Z" id="Path"></path>
                            <path d="M27.691008,14.2451871 C27.9040278,14.6934826 27.9256478,15.227622 27.9682517,15.7395055 L23.2919888,15.7395055 L23.2919888,14.2451871 L27.691008,14.2451871 Z" id="Path"></path>
                            <rect id="Rectangle" x="2.95717603" y="14.2451871" width="4.34878465" height="1.48732378"></rect>
                            <rect id="Rectangle" x="45.0721572" y="16.9928254" width="7.13076051" height="1.48732378"></rect>
                            <rect id="Rectangle" x="29.0924879" y="16.9928254" width="7.13839107" height="1.48732378"></rect>
                            <polygon id="Path" points="41.735058 18.4801492 39.5584401 18.4801492 39.0357465 16.9928254 42.2386751 16.9928254"></polygon>
                            <path d="M0.124320078,16.9921895 L0.124320078,18.4795165 L10.2526295,18.4795133 C10.2570807,18.4820568 10.2481783,16.9934613 10.2526295,16.9934613 C10.2570807,16.9934613 0.112883913,16.9921895 0.124320078,16.9921895 Z" id="Path"></path>
                            <path d="M27.7832106,16.9921895 C27.6763827,17.483089 27.5784572,18.0814523 27.2198207,18.4801492 L27.0862859,18.4795133 L11.5758962,18.4795133 L11.5758962,16.9921895 L27.7832106,16.9921895 Z" id="Path"></path>
                            <polygon id="Path" points="40.7488078 21.2881961 40.5478696 21.2881961 40.0391655 19.797057 41.2708654 19.797057"></polygon>
                            <rect id="Rectangle" x="45.0721572" y="19.797057" width="7.13076051" height="1.49431846"></rect>
                            <path d="M11.5739885,21.2881961 L11.5739885,19.7996006 C11.5739885,19.7996006 26.2068636,19.8008723 26.2481958,19.8008723 C25.2663968,20.7407033 23.9183308,21.2703915 22.4659804,21.2913755 L11.5758962,21.288832" id="Path"></path>
                            <rect id="Rectangle" x="29.0924879" y="19.797057" width="7.13839107" height="1.49431846"></rect>
                            <path d="M10.2526295,19.8034158 C10.2526295,19.8034158 10.2481783,21.2881961 10.2526295,21.2881961 C10.2570807,21.2881961 0.127509157,21.2945549 0.124329756,21.2913755 C0.121786235,21.2881961 0.126873277,19.7996006 0.124329756,19.7996006 C0.121786235,19.7996006 10.2481783,19.8085029 10.2526295,19.8034158 Z" id="Path"></path>
                            <path d="M53.8186893,19.8638245 C53.8186893,19.0708819 54.4666512,18.4222841 55.2672244,18.4222841 C56.0646182,18.4222841 56.7087648,19.0708819 56.7087648,19.8638245 C56.7087648,20.6643976 56.0646182,21.3123596 55.2672244,21.3123596 C54.4666512,21.3123596 53.8186893,20.6643976 53.8186893,19.8638245 Z M56.4798479,19.8638245 C56.4798479,19.1618127 55.9692361,18.6130481 55.2672244,18.6130481 C54.5620333,18.6130481 54.0469703,19.1618127 54.0469703,19.8638245 C54.0469703,20.5728309 54.5620333,21.1222314 55.2672244,21.1222314 C55.9692361,21.1222314 56.4798479,20.5728309 56.4798479,19.8638245 Z M55.9883125,20.6720282 L55.7517651,20.6720282 L55.2901161,19.9286842 L54.9283002,19.9286842 L54.9283002,20.6720282 L54.7299056,20.6720282 L54.7299056,19.059436 L55.4350968,19.059436 C55.8624083,19.059436 56.0067531,19.2190419 56.0067531,19.4861116 C56.0067531,19.80278 55.7861026,19.9204178 55.4999565,19.9286842 L55.9883125,20.6720282 Z M55.2290716,19.7722577 C55.4579884,19.7722577 55.7937332,19.8104105 55.7937332,19.4822963 C55.7937332,19.2304878 55.587708,19.1999655 55.3893134,19.1999655 L54.9283002,19.1999655 L54.9283002,19.7722577 L55.2290716,19.7722577 Z" id="Shape"></path>
                        </g>
                    </g>
                </g>
            </g>
        </g>
    </g>
</svg>