<svg xmlns="http://www.w3.org/2000/svg" width="16.581" height="19.898" viewBox="0 0 16.581 19.898">
  <g id="Groupe_288" data-name="Groupe 288" transform="translate(-10 -5)">
    <path id="Tracé_176" data-name="Tracé 176" d="M14.974,24.9H26.029a.553.553,0,0,0,.553-.553V13.291a.563.563,0,0,0-.162-.391L18.682,5.162A.553.553,0,0,0,18.291,5H10.553A.553.553,0,0,0,10,5.553V21.029a.553.553,0,0,0,.553.553h1.658v1.658a.553.553,0,0,0,.553.553h1.658v.553A.553.553,0,0,0,14.974,24.9ZM13.316,8.316h6.956l1.105,1.105h-6.4a.553.553,0,0,0-.553.553V22.687H13.316ZM11.105,6.105h6.956l1.105,1.105h-6.4a.553.553,0,0,0-.553.553V20.476H11.105ZM23.818,23.792H15.527V10.527H22.16v2.764a.553.553,0,0,0,.553.553h2.764v9.949Zm.876-11.054H23.265V11.309Z" fill="#ff7b5c"/>
    <path id="Tracé_177" data-name="Tracé 177" d="M47.185,65H40.553a.553.553,0,1,0,0,1.105h6.633a.553.553,0,0,0,0-1.105Z" transform="translate(-23.367 -46.735)" fill="#ff7b5c"/>
    <path id="Tracé_178" data-name="Tracé 178" d="M47.185,55H40.553a.553.553,0,1,0,0,1.105h6.633a.553.553,0,0,0,0-1.105Z" transform="translate(-23.367 -38.946)" fill="#ff7b5c"/>
  </g>
</svg>
