<?xml version="1.0" encoding="UTF-8"?>
<svg width="124px" height="28px" viewBox="0 0 124 28" version="1.1" xmlns="http://www.w3.org/2000/svg" xmlns:xlink="http://www.w3.org/1999/xlink">
    <!-- Generator: Sketch 52.3 (67297) - http://www.bohemiancoding.com/sketch -->
    <title>Logo XCEED V4 couleur</title>
    <desc>Created with Sketch.</desc>
    <defs>
        <linearGradient x1="-11.7535525%" y1="50.1516495%" x2="107.752058%" y2="50.1516495%" id="linearGradient-1">
            <stop stop-color="#2E1774" offset="0%"></stop>
            <stop stop-color="#2E1789" offset="17%"></stop>
            <stop stop-color="#2E179C" offset="37%"></stop>
            <stop stop-color="#2E17A3" offset="100%"></stop>
        </linearGradient>
        <linearGradient x1="-11.7535525%" y1="50.1516495%" x2="107.752058%" y2="50.1516495%" id="linearGradient-2">
            <stop stop-color="#7C37C4" offset="0%"></stop>
            <stop stop-color="#5F34D7" offset="26%"></stop>
            <stop stop-color="#5433DF" offset="48%"></stop>
            <stop stop-color="#381EB2" offset="74%"></stop>
            <stop stop-color="#2E17A3" offset="100%"></stop>
        </linearGradient>
        <linearGradient x1="0%" y1="50.0000817%" x2="101.187251%" y2="50.0000817%" id="linearGradient-3">
            <stop stop-color="#D43F8D" offset="0%"></stop>
            <stop stop-color="#7F37C4" offset="30%"></stop>
            <stop stop-color="#5433DF" offset="70%"></stop>
            <stop stop-color="#2E17A3" offset="100%"></stop>
        </linearGradient>
        <linearGradient x1="0%" y1="65.2184623%" x2="123.330206%" y2="65.2184623%" id="linearGradient-4">
            <stop stop-color="#C03F8D" offset="0%"></stop>
            <stop stop-color="#8437C4" offset="33%"></stop>
            <stop stop-color="#6234D7" offset="50%"></stop>
            <stop stop-color="#5433DF" offset="64%"></stop>
            <stop stop-color="#2E2F4B" offset="82%"></stop>
            <stop stop-color="#222E1A" offset="100%"></stop>
        </linearGradient>
        <linearGradient x1="0%" y1="65.2184623%" x2="123.330206%" y2="65.2184623%" id="linearGradient-5">
            <stop stop-color="#A53F8D" offset="0%"></stop>
            <stop stop-color="#7F37C4" offset="33%"></stop>
            <stop stop-color="#5433DF" offset="57%"></stop>
            <stop stop-color="#1B176F" offset="77%"></stop>
            <stop stop-color="#0A0F4E" offset="100%"></stop>
        </linearGradient>
    </defs>
    <g id="End-UI" stroke="none" stroke-width="1" fill="none" fill-rule="evenodd">
        <g id="Selected-date" transform="translate(-626.000000, -226.000000)">
            <g id="Logo-XCEED-V4-couleur" transform="translate(626.000000, 226.000000)">
                <text id="Secured-by-Blockchai" font-family="Nunito-SemiBold, Nunito" font-size="6" font-weight="500" fill="#3C21B9">
                    <tspan x="63" y="26">Secured by Blockchain</tspan>
                </text>
                <g id="Group-3" transform="translate(59.000000, 0.000000)" stroke="#3C21B9" stroke-linecap="round">
                    <g id="XCEED">
                        <g id="X">
                            <g id="Group" transform="translate(9.821902, 10.134650) rotate(135.000000) translate(-9.821902, -10.134650) translate(3.321902, 3.634650)">
                                <path d="M6.15166246,0.0640921586 L6.15166246,12.0943355" id="Path"></path>
                                <path d="M6.15166217,0.0640927894 L6.15166217,12.0943361" id="Path" transform="translate(6.151662, 6.079214) rotate(90.000000) translate(-6.151662, -6.079214) "></path>
                            </g>
                        </g>
                        <g id="Group" transform="translate(37.000000, 10.000000) rotate(90.000000) translate(-37.000000, -10.000000) translate(32.000000, -12.000000)">
                            <path d="M5.08219848,39.890673 L5.08219848,43.3373362" id="Path"></path>
                            <path d="M5,19.9359935 L5,23.3826567" id="Path"></path>
                            <path d="M8.73734638,37.7716353 L5.71158036,37.7716353 C3.25948426,37.7716353 1.26868342,35.8465242 1.26868342,33.475339 C1.26868342,31.1041538 3.25948426,29.1790427 5.71158036,29.1790427 L8.73734638,29.1790427" id="Path" transform="translate(5.003015, 33.475339) rotate(-90.000000) translate(-5.003015, -33.475339) "></path>
                            <path d="M8.73734648,27.9666213 L5.71158046,27.9666213 C3.25948436,27.9666213 1.26868352,26.0415102 1.26868352,23.670325 C1.26868352,21.2991398 3.25948436,19.3740287 5.71158046,19.3740287 L8.73734648,19.3740287" id="Path" transform="translate(5.003015, 23.670325) rotate(-90.000000) translate(-5.003015, -23.670325) "></path>
                            <path d="M8.7373465,18.1616073 L5.71158048,18.1616073 C3.25948439,18.1616073 1.26868355,16.2364962 1.26868355,13.865311 C1.26868355,11.4941259 3.25948439,9.56901477 5.71158048,9.56901477 L8.7373465,9.56901477" id="Path" transform="translate(5.003015, 13.865311) rotate(-90.000000) translate(-5.003015, -13.865311) "></path>
                            <path d="M8.73734696,8.26196526 L5.71158094,8.26196526 C3.25948484,8.26196526 1.268684,6.33685415 1.268684,3.96566896 C1.268684,1.59448378 3.25948484,-0.330627337 5.71158094,-0.330627337 L8.73734696,-0.330627337" id="Path" transform="translate(5.003015, 3.965669) rotate(90.000000) translate(-5.003015, -3.965669) "></path>
                            <path d="M5.00301496,10.1309796 L5,13.3650255" id="Path"></path>
                        </g>
                    </g>
                </g>
                <g id="Group-5">
                    <g id="c4" transform="translate(45.554612, 14.185723) scale(-1, 1) translate(-45.554612, -14.185723) translate(37.554612, 0.685723)" fill="url(#linearGradient-1)">
                        <path d="M15.8581373,26.3648918 C15.1007885,26.4962374 14.3216773,26.5646558 13.5264665,26.5646558 C6.11941454,26.5646558 0.105813442,20.6264271 0.105813442,13.312254 C0.105813442,5.99808097 6.11941454,0.0598523194 13.5264665,0.0598523194 C14.3216773,0.0598523194 15.1007885,0.128270659 15.8581373,0.259616299 C9.56084963,1.35079547 4.76915507,6.78329947 4.76915507,13.312254 C4.76915507,19.8412086 9.56084963,25.2738224 15.8581373,26.3648918 Z" id="Path"></path>
                    </g>
                    <g id="c41" transform="translate(46.773727, 14.185723) scale(-1, 1) translate(-46.773727, -14.185723) translate(38.773727, 0.685723)" fill="url(#linearGradient-2)">
                        <path d="M15.8581373,26.3648918 C15.1007885,26.4962374 14.3216773,26.5646558 13.5264665,26.5646558 C6.11941454,26.5646558 0.105813442,20.6264271 0.105813442,13.312254 C0.105813442,5.99808097 6.11941454,0.0598523194 13.5264665,0.0598523194 C14.3216773,0.0598523194 15.1007885,0.128270659 15.8581373,0.259616299 C9.56084963,1.35079547 4.76915507,6.78329947 4.76915507,13.312254 C4.76915507,19.8412086 9.56084963,25.2738224 15.8581373,26.3648918 Z" id="Path"></path>
                    </g>
                    <path d="M17.1091595,14.0048465 C16.3000733,13.6168845 15.7932261,13.2159637 15.3268129,12.8199652 C13.0727703,10.9067761 11.5933738,4.78879025 5.83478101,2.44173069 C2.91896195,1.25323292 0.227358513,0.986019329 0.227358513,0.986019329 C0.227358513,0.986019329 8.26356351,-0.469993399 11.2095557,0.980494236 C14.080877,2.39411443 17.7136375,9.32459036 17.8957936,9.67478081 L17.9029051,9.66533792 C17.9029051,9.66533792 18.203925,10.3795818 18.9077609,10.9244564 C19.1547334,11.089506 19.4032297,11.194081 19.621045,11.2602816 C19.9905385,11.362747 20.3078133,11.3742995 20.3106579,11.3743999 C20.3131977,11.3742995 20.6305741,11.362747 21.0001692,11.2602816 C21.2179845,11.194081 21.4664808,11.089506 21.7134533,10.9244564 C21.8683825,10.8045117 22.0038059,10.67643 22.1207394,10.5494533 C22.431309,10.1750529 22.7183091,9.66533792 22.7183091,9.66533792 C22.7183091,9.66533792 22.7254206,9.67478081 22.7254206,9.67478081 C22.9081863,9.32348534 26.540642,2.39401397 29.4116585,0.980494236 C32.3576507,-0.469993399 40.3938557,0.986019329 40.3938557,0.986019329 C40.3938557,0.986019329 37.7022523,1.25323292 34.7864332,2.44173069 C29.0278404,4.78879025 27.548444,10.9067761 25.2944013,12.8199652 C25.2618916,12.8475907 25.2292802,12.8751157 25.1962625,12.9027411 L25.1974817,12.9043484 C25.1974817,12.9043484 25.1878303,12.9115813 25.1695436,12.9251429 C24.7359449,13.2866849 24.2496195,13.6512406 23.5120547,14.0048465 C24.2496195,14.3584525 24.7359449,14.7229077 25.1695436,15.0845502 C25.1878303,15.0981118 25.1974817,15.1053446 25.1974817,15.1053446 L25.1962625,15.1069519 C25.2292802,15.1344769 25.2618916,15.1621024 25.2944013,15.1896274 C27.548444,17.1028165 29.0278404,23.2208023 34.7864332,25.5679624 C37.7022523,26.7564601 40.3938557,27.0236737 40.3938557,27.0236737 C40.3938557,27.0236737 32.3576507,28.479586 29.4116585,27.0291988 C26.540642,25.6156791 22.9081863,18.6861073 22.7254206,18.3349123 C22.7254206,18.3349123 22.7183091,18.3442547 22.7183091,18.3442547 C22.7183091,18.3442547 22.431309,17.8346402 22.1207394,17.4602398 C22.0038059,17.3332631 21.8683825,17.2050809 21.7134533,17.0851362 C21.4664808,16.9200866 21.2179845,16.8156121 21.0001692,16.7494114 C20.6305741,16.6468456 20.3131977,16.6353936 20.3106579,16.6352931 C20.3078133,16.6353936 19.9905385,16.6469461 19.621045,16.7494114 C19.4032297,16.8156121 19.1547334,16.920187 18.9077609,17.0851362 C18.203925,17.6300108 17.9029051,18.3442547 17.9029051,18.3442547 L17.8957936,18.3349123 C17.7136375,18.6850022 14.080877,25.6155786 11.2095557,27.0291988 C8.26356351,28.479586 0.227358513,27.0236737 0.227358513,27.0236737 C0.227358513,27.0236737 2.91896195,26.7564601 5.83478101,25.5679624 C11.5933738,23.2208023 13.0727703,17.1028165 15.3268129,15.1896274 C15.7932261,14.7937294 16.3000733,14.3927081 17.1091595,14.0048465 Z" id="Path" fill="url(#linearGradient-3)"></path>
                    <g id="Group" transform="translate(0.205618, 0.322938)" fill="url(#linearGradient-4)">
                        <path d="M20.2683001,11.0328074 C20.2683001,11.0328074 18.9183331,11.4270981 16.7940247,9.89634592 C15.4454799,8.92453227 13.9247352,5.72550334 11.4292061,3.56760287 C10.150151,2.46157968 9.00286185,1.80911641 7.0514646,1.01370391 C4.13564553,-0.174793856 0.0217408898,0.663111633 0.0217408898,0.663111633 C0.0217408898,0.663111633 8.05794588,-0.792901094 11.0039381,0.657486084 C13.8752594,2.07120673 17.5080199,9.00168266 17.690176,9.35187311 L17.6972875,9.34243022 C17.6972875,9.34243022 17.9770745,9.80533257 18.1387089,10.0220167 C18.3014608,10.2403081 18.6031918,10.5770374 18.9967629,10.7686074 C19.2931095,10.9127622 19.5784841,10.9923235 19.817837,11.023264 C20.0848233,11.057821 20.2683001,11.0328074 20.2683001,11.0328074 Z" id="Path"></path>
                    </g>
                    <g id="Group" transform="translate(10.705618, 21.686685) scale(-1, 1) rotate(-180.000000) translate(-10.705618, -21.686685) translate(0.205618, 15.686685)" fill="url(#linearGradient-5)">
                        <path d="M20.2683001,11.0328074 C20.2683001,11.0328074 18.9183331,11.4270981 16.7940247,9.89634592 C15.4454799,8.92453227 13.9247352,5.72550334 11.4292061,3.56760287 C10.150151,2.46157968 9.00286185,1.80911641 7.0514646,1.01370391 C4.13564553,-0.174793856 0.0217408898,0.663111633 0.0217408898,0.663111633 C0.0217408898,0.663111633 8.05794588,-0.792901094 11.0039381,0.657486084 C13.8752594,2.07120673 17.5080199,9.00168266 17.690176,9.35187311 L17.6972875,9.34243022 C17.6972875,9.34243022 17.9770745,9.80533257 18.1387089,10.0220167 C18.3014608,10.2403081 18.6031918,10.5770374 18.9967629,10.7686074 C19.2931095,10.9127622 19.5784841,10.9923235 19.817837,11.023264 C20.0848233,11.057821 20.2683001,11.0328074 20.2683001,11.0328074 Z" id="Path"></path>
                    </g>
                </g>
            </g>
        </g>
    </g>
</svg>