<svg xmlns="http://www.w3.org/2000/svg" width="15.727" height="13.198" viewBox="0 0 15.727 13.198">
  <g id="Groupe_428" data-name="Groupe 428" transform="translate(-17.416 -17.402)">
    <path id="Tracé_322" data-name="Tracé 322" d="M24.016,30.6a6.582,6.582,0,0,0,4.669-1.931.506.506,0,0,0-.716-.716,5.59,5.59,0,1,1,0-7.906.506.506,0,1,0,.716-.716A6.6,6.6,0,1,0,24.016,30.6Z" transform="translate(0 0)" fill="#4390ef"/>
    <path id="Tracé_323" data-name="Tracé 323" d="M57,39.155h0L54.846,37a.506.506,0,1,0-.716.716l1.292,1.292h-7.4a.506.506,0,0,0,0,1.012h7.4L54.13,41.311a.506.506,0,0,0,.716.716L57,39.872a.506.506,0,0,0,.063-.639A.494.494,0,0,0,57,39.155Z" transform="translate(-24.007 -15.513)" fill="#4390ef"/>
  </g>
</svg>
