<svg xmlns="http://www.w3.org/2000/svg" width="47.667" height="40.003" viewBox="0 0 47.667 40.003">
  <g id="Groupe_428" data-name="Groupe 428" transform="translate(-17.416 -17.402)">
    <path id="Tracé_322" data-name="Tracé 322" d="M37.418,57.4a19.95,19.95,0,0,0,14.15-5.852A1.534,1.534,0,0,0,49.4,49.384a16.944,16.944,0,1,1,0-23.962,1.534,1.534,0,0,0,2.169-2.169A20.011,20.011,0,1,0,37.418,57.4Z" transform="translate(0)" fill="#4390ef"/>
    <path id="Tracé_323" data-name="Tracé 323" d="M76.264,43.833h0l-6.53-6.53a1.534,1.534,0,0,0-2.169,2.169l3.915,3.915H49.05a1.534,1.534,0,0,0,0,3.068H71.478l-3.915,3.915a1.534,1.534,0,0,0,2.17,2.169L76.266,46a1.533,1.533,0,0,0,.19-1.936A1.5,1.5,0,0,0,76.264,43.833Z" transform="translate(-11.632 -7.516)" fill="#4390ef"/>
  </g>
</svg>
