<?xml version="1.0" encoding="UTF-8"?>
<svg width="124px" height="28px" viewBox="0 0 124 28" version="1.1" xmlns="http://www.w3.org/2000/svg" xmlns:xlink="http://www.w3.org/1999/xlink">
    <!-- Generator: Sketch 52.3 (67297) - http://www.bohemiancoding.com/sketch -->
    <title>Logo XCEED blanc</title>
    <desc>Created with Sketch.</desc>
    <g id="End-UI" stroke="none" stroke-width="1" fill="none" fill-rule="evenodd">
        <g id="Selected-date" transform="translate(-604.000000, -31.000000)">
            <g id="Logo-XCEED-blanc" transform="translate(604.000000, 31.000000)">
                <g id="Logo-XCEED-V4.1">
                    <g id="Group-3" transform="translate(59.000000, 0.000000)">
                        <g id="XCEED">
                            <g id="Group" transform="translate(23.000000, 6.000000)"></g>
                            <g id="X" stroke="#FFFFFF" stroke-linecap="round">
                                <g id="Group" transform="translate(9.821902, 10.134650) rotate(135.000000) translate(-9.821902, -10.134650) translate(3.321902, 3.634650)">
                                    <path d="M6.15166246,0.0640921586 L6.15166246,12.0943355" id="Path"></path>
                                    <path d="M6.15166246,0.0640921587 L6.15166246,12.0943355" id="Path" transform="translate(6.151662, 6.079214) rotate(-270.000000) translate(-6.151662, -6.079214) "></path>
                                </g>
                            </g>
                            <g id="Group" transform="translate(37.000000, 10.000000) rotate(90.000000) translate(-37.000000, -10.000000) translate(32.000000, -12.000000)" stroke="#FFFFFF" stroke-linecap="round">
                                <path d="M5.08219848,39.890673 L5.08219848,43.3373362" id="Path"></path>
                                <path d="M5,19.9359935 L5,23.3826567" id="Path"></path>
                                <path d="M8.73734644,37.7716352 L5.71158042,37.7716352 C3.25948432,37.7716352 1.26868348,35.8465241 1.26868348,33.4753389 C1.26868348,31.1041537 3.25948432,29.1790426 5.71158042,29.1790426 L8.73734644,29.1790426" id="Path" transform="translate(5.003015, 33.475339) rotate(-90.000000) translate(-5.003015, -33.475339) "></path>
                                <path d="M8.73734644,27.9666213 L5.71158042,27.9666213 C3.25948432,27.9666213 1.26868348,26.0415102 1.26868348,23.670325 C1.26868348,21.2991398 3.25948432,19.3740287 5.71158042,19.3740287 L8.73734644,19.3740287" id="Path" transform="translate(5.003015, 23.670325) rotate(-90.000000) translate(-5.003015, -23.670325) "></path>
                                <path d="M8.73734644,18.1616073 L5.71158042,18.1616073 C3.25948432,18.1616073 1.26868348,16.2364962 1.26868348,13.865311 C1.26868348,11.4941259 3.25948432,9.56901475 5.71158042,9.56901475 L8.73734644,9.56901475" id="Path" transform="translate(5.003015, 13.865311) rotate(-90.000000) translate(-5.003015, -13.865311) "></path>
                                <path d="M8.73734644,8.26196482 L5.71158042,8.26196482 C3.25948432,8.26196482 1.26868348,6.33685371 1.26868348,3.96566852 C1.26868348,1.59448334 3.25948432,-0.330627773 5.71158042,-0.330627773 L8.73734644,-0.330627773" id="Path" transform="translate(5.003015, 3.965669) rotate(-270.000000) translate(-5.003015, -3.965669) "></path>
                                <path d="M5.00301496,10.1309796 L5,13.3650255" id="Path"></path>
                            </g>
                        </g>
                    </g>
                    <text id="Secured-by-Blockchai" font-family="Nunito-SemiBold, Nunito" font-size="6" font-weight="500" fill="#FFFFFF">
                        <tspan x="63" y="26">Secured by Blockchain</tspan>
                    </text>
                    <g id="Logo" fill="#FFFFFF">
                        <g id="Logo-blanc">
                            <path d="M39.3085821,27.4978462 C36.9064366,27.8459487 31.7301772,28.4191795 29.4840019,27.3012308 C26.5840858,25.8580513 22.9152985,18.7830769 22.7306996,18.4245128 C22.7306996,18.4245128 22.7234142,18.4340513 22.7234142,18.4340513 C22.7234142,18.4340513 22.4335354,17.9137436 22.1199534,17.5313846 C22.0017444,17.4018462 21.8649627,17.2709744 21.7084795,17.1485128 C21.4591325,16.98 21.2081437,16.8733333 20.9881437,16.8057436 C20.6148414,16.7010256 20.2942817,16.6893333 20.2916138,16.6892308 C20.2887407,16.6893333 19.9683862,16.7011282 19.5951866,16.8057436 C19.375084,16.8733333 19.1240951,16.9801026 18.8747481,17.1485128 C18.1638526,17.7048205 17.8598134,18.4340513 17.8598134,18.4340513 L17.8526306,18.4245128 C17.6686474,18.7819487 13.999347,25.8578462 11.0992257,27.3012308 C8.12378731,28.7820513 0.00697761194,27.2954872 0.00697761194,27.2954872 C0.00697761194,27.2954872 2.72557836,27.0227692 5.67064366,25.8093333 C11.4869963,23.4129231 12.9811287,17.1665641 15.2578825,15.2132308 C15.7289739,14.8090256 16.2408022,14.3995897 17.0580037,14.0035897 C16.2408022,13.6074872 15.7289739,13.1981538 15.2578825,12.7938462 C12.9811287,10.8405128 11.4869963,4.59415385 5.67064366,2.19784615 C2.72557836,0.984410256 0.00697761194,0.711589744 0.00697761194,0.711589744 C0.00697761194,0.711589744 8.12378731,-0.774974359 11.0992257,0.705948718 C13.999347,2.14923077 17.6686474,9.22512821 17.8526306,9.58266667 L17.8598134,9.57302564 C17.8598134,9.57302564 18.1638526,10.3022564 18.8747481,10.8585641 C19.1240951,11.0270769 19.375084,11.1338462 19.5951866,11.2014359 C19.9683862,11.3060513 20.2887407,11.3178462 20.2916138,11.3179487 C20.2942817,11.3178462 20.6148414,11.3060513 20.9881437,11.2014359 C21.2081437,11.1338462 21.4591325,11.0270769 21.7084795,10.8585641 C21.8649627,10.7361026 22.0017444,10.6053333 22.1199534,10.4756923 C22.4335354,10.0934359 22.7234142,9.57302564 22.7234142,9.57302564 C22.7234142,9.57302564 22.7306996,9.58266667 22.7306996,9.58266667 C22.9152985,9.224 26.5840858,2.14912821 29.4840019,0.705948718 C31.7099627,-0.401948718 36.8130597,0.150974359 39.2429104,0.499897436 C39.5610075,0.477538462 39.8821828,0.466153846 40.2064366,0.466153846 C40.4126866,0.466153846 40.6179104,0.470769231 40.8221082,0.479897436 C41.026306,0.470769231 41.2315299,0.466153846 41.4377799,0.466153846 C48.9192164,0.466153846 54.9928172,6.52892308 54.9928172,13.9966154 C54.9928172,21.4643077 48.9192164,27.5270769 41.4377799,27.5270769 C41.2315299,27.5270769 41.026306,27.5224615 40.8221082,27.5133333 C40.6179104,27.5224615 40.4126866,27.5270769 40.2064366,27.5270769 C39.9047575,27.5270769 39.6051306,27.5172308 39.3085821,27.4978462 Z M39.0961754,0.949230769 C38.0300373,1.16092308 36.5041978,1.54194872 34.912584,2.19784615 C29.096334,4.59415385 27.6020989,10.8405128 25.3254478,12.7938462 C25.2926119,12.8220513 25.2596735,12.8501538 25.2263246,12.878359 L25.227556,12.88 C25.227556,12.88 25.2178078,12.8873846 25.1993377,12.9012308 C24.7613899,13.270359 24.2701866,13.6425641 23.5252239,14.0035897 C24.2701866,14.3646154 24.7613899,14.7367179 25.1993377,15.1059487 C25.2178078,15.1197949 25.227556,15.1271795 25.227556,15.1271795 L25.2263246,15.1288205 C25.2596735,15.1569231 25.2926119,15.1851282 25.3254478,15.2132308 C27.6020989,17.1665641 29.096334,23.4129231 34.912584,25.8093333 C36.4898321,26.4590769 38.0023321,26.8391795 39.0664179,27.052 C44.8178172,25.4864615 49.0515858,20.2311795 49.0515858,13.9966154 C49.0515858,7.77282051 44.8321828,2.52482051 39.0961754,0.949230769 Z" id="c4"></path>
                        </g>
                    </g>
                </g>
            </g>
        </g>
    </g>
</svg>