<svg xmlns="http://www.w3.org/2000/svg" width="17.741" height="18.384" viewBox="0 0 17.741 18.384">
<style>
    svg {
      cursor:pointer;
    }

    </style>
  <path id="Tracé_48" data-name="Tracé 48" d="M13.972,13.412l-1.439-.291c-.314-.536-.719-1.248-.888-1.531a7.538,7.538,0,0,0,1.424-2.962.369.369,0,0,0,0-.092V8.124c.7-.505.9-2.3.934-2.694A5.562,5.562,0,0,0,12.28,1.511,4.738,4.738,0,0,0,8.935-.02h-.26A5.334,5.334,0,0,0,3.754,4.228a3.973,3.973,0,0,0,.834,3.643h0v.612a.387.387,0,0,0,0,.084,7.008,7.008,0,0,0,1.531,3.061l-1.1,1.492L3.654,13.4A4.66,4.66,0,0,0-.05,18a.367.367,0,0,0,.367.367H17.324A.367.367,0,0,0,17.691,18,4.654,4.654,0,0,0,13.972,13.412ZM7.627,15A2.876,2.876,0,0,1,5.7,13.473l.957-1.332a3.482,3.482,0,0,0,1.776.765L7.8,15.042A.367.367,0,0,0,7.627,15Zm1.217-.865,1.232,3.444H7.826Zm.367-1.186a3.446,3.446,0,0,0,1.875-.827c.191.344.505.888.765,1.324A2.885,2.885,0,0,1,9.93,14.981ZM4.481,4.411A4.531,4.531,0,0,1,8.675.745h.253a4.148,4.148,0,0,1,2.84,1.271A4.815,4.815,0,0,1,13.3,5.368a7.985,7.985,0,0,1-.2,1.148V6.057h0a.455.455,0,0,0-.069-.237c-.138-.2-.352-.23-.941-.314a10.113,10.113,0,0,1-3.061-.811A5.353,5.353,0,0,1,7,2.59a.366.366,0,0,0-.321-.2.406.406,0,0,0-.329.184A15.8,15.8,0,0,0,4.611,6.057v.528A3.827,3.827,0,0,1,4.481,4.411ZM5.353,6.1a17.479,17.479,0,0,1,1.3-2.587A5.533,5.533,0,0,0,8.683,5.338a10.773,10.773,0,0,0,3.283.88l.375.054V8.437c-.383,1.492-1.332,3.789-3.5,3.789-1.806,0-3.061-1.952-3.49-3.773ZM3.823,14.155,5.047,13.9a3.572,3.572,0,0,0,2.426,1.86H7.6l-.543,1.822H.746a3.918,3.918,0,0,1,3.1-3.459Zm7.041,3.429-.674-1.906a3.613,3.613,0,0,0,2.3-1.822l1.347.268a3.911,3.911,0,0,1,3.107,3.459Z" transform="translate(0.05 0.02)" fill="#4390ef"/>
</svg>
