<svg xmlns="http://www.w3.org/2000/svg" width="15.088" height="20" viewBox="0 0 15.088 20">
<style>
    svg {
      cursor:pointer;
    }

    </style>
  <g id="Groupe_275" data-name="Groupe 275" transform="translate(-26.5 -12.5)">
    <path id="Tracé_201" data-name="Tracé 201" d="M39.824,34.3H37.559a.588.588,0,1,0,0,1.176h2.265a.59.59,0,0,1,.588.588V46.124a.59.59,0,0,1-.588.588H28.265a.59.59,0,0,1-.588-.588V36.065a.59.59,0,0,1,.588-.588h2.265a.588.588,0,1,0,0-1.176H28.265A1.77,1.77,0,0,0,26.5,36.065V46.124a1.77,1.77,0,0,0,1.765,1.765H39.824a1.77,1.77,0,0,0,1.765-1.765V36.065A1.77,1.77,0,0,0,39.824,34.3Z" transform="translate(0 -15.388)" fill="#4390ef"/>
    <path id="Tracé_202" data-name="Tracé 202" d="M39.476,22.412a.569.569,0,0,0,0,.824l3.206,3.206a.569.569,0,0,0,.824,0l3.206-3.206a.582.582,0,1,0-.824-.824l-2.206,2.206V13.088a.588.588,0,0,0-1.176,0v11.5L40.3,22.382A.6.6,0,0,0,39.476,22.412Z" transform="translate(-9.035)" fill="#4390ef"/>
  </g>
</svg>
