<svg xmlns="http://www.w3.org/2000/svg" width="16.922" height="15.45" viewBox="0 0 16.922 15.45">
<style>
    svg {
      cursor:pointer;
    }

    </style>
  <g id="Groupe_17" data-name="Groupe 17" transform="translate(-4 -8)">
    <path id="Tracé_47" data-name="Tracé 47" d="M4.552,8A.552.552,0,0,0,4,8.552V22.9a.552.552,0,0,0,.552.552H20.37a.552.552,0,1,0,0-1.1H5.1V8.552A.552.552,0,0,0,4.552,8Zm11.036,3.127a.6.6,0,0,0-.58.58.574.574,0,0,0,.58.523h1.558l-4.891,4.6-1.759-1.466a.549.549,0,0,0-.793-.052L6.023,18.622a.552.552,0,1,0,.736.822l3.328-2.995,1.77,1.477a.575.575,0,0,0,.8.04l5.323-5v1.655a.552.552,0,1,0,1.1,0V11.679a.573.573,0,0,0-.552-.552Z" fill="#4390ef"/>
  </g>
</svg>
