<?xml version="1.0" encoding="UTF-8"?>
<svg width="10px" height="11px" viewBox="0 0 10 11" version="1.1" xmlns="http://www.w3.org/2000/svg" xmlns:xlink="http://www.w3.org/1999/xlink">
    <!-- Generator: Sketch 52.3 (67297) - http://www.bohemiancoding.com/sketch -->
    <title>edit icon</title>
    <desc>Created with Sketch.</desc>
    <g id="Page-1" stroke="none" stroke-width="1" fill="none" fill-rule="evenodd">
        <g id="Artboard" transform="translate(-6.000000, -4.000000)">
            <g id="edit-icon" transform="translate(7.000000, 5.000000)">
                <g id="Group">
                    <g id="Path">
                        <path d="M8.32097871,1.38355556 L7.09061813,0.158663248 C6.92720467,-0.00278290598 6.64004121,-0.00278290598 6.47798764,0.158663248 L5.36401099,1.26768889 L1.06154533,5.54979145 C1.02312843,5.58927863 0.992190934,5.63485812 0.969979396,5.68528889 L0.0491071429,7.82696068 C-0.0202472527,7.98964786 0.015676511,8.17692991 0.140673077,8.30137094 C0.223626374,8.38395556 0.335024038,8.42829402 0.447668269,8.42829402 C0.504557005,8.42829402 0.562805632,8.41723761 0.618447802,8.39377094 L2.76968063,7.47575043 C2.82044986,7.45476581 2.86623283,7.42396581 2.9045364,7.38459145 L7.20688874,3.10260171 L8.32086538,1.99357607 C8.40132555,1.91223248 8.44710852,1.80257094 8.44710852,1.68918632 C8.44722184,1.57456068 8.40143887,1.46489915 8.32097871,1.38355556 Z" stroke="#FFFFFF" stroke-width="0.5" fill="#FFFFFF" fill-rule="nonzero"></path>
                        <path d="M6.62644231,2.46054017 L6.62768887,2.4617812 C6.6165831,2.47159658 6.60536401,2.48152479 6.59425824,2.4925812 L6.62644231,2.46054017 L6.00882555,1.84566838 L5.97664148,1.8777094 C5.98774725,1.86665299 5.99647321,1.85548376 6.00633242,1.84442735 L6.00882555,1.84566838 L6.78362294,1.07431453 L7.4012397,1.68918632 L6.62644231,2.46054017 Z" fill="#0B97FD" fill-rule="nonzero"></path>
                        <polygon fill="#FFFFFF" fill-rule="nonzero" points="2.35128777 6.71545299 1.27198832 7.17632479 1.73367102 6.10182222 5.57196085 2.28183248 6.18833104 2.89546325"></polygon>
                        <path d="M6.00882555,1.84566838 L5.97664148,1.8777094 C5.98774725,1.86665299 5.99647321,1.85548376 6.00633242,1.84442735 L6.00882555,1.84566838 Z" fill="#000000"></path>
                        <path d="M6.62768887,2.4617812 C6.6165831,2.47159658 6.60536401,2.48152479 6.59425824,2.4925812 L6.62644231,2.46054017 L6.62768887,2.4617812 Z" fill="#000000"></path>
                    </g>
                    <g transform="translate(5.384615, 1.538462)" fill="#000000" id="Path">
                        <path d="M0.0995192308,0.147323077 L0.0585576923,0.188102564 C0.0726923077,0.174030769 0.0837980769,0.159815385 0.0963461538,0.14574359 L0.0995192308,0.147323077 Z"></path>
                        <path d="M0.887163462,0.931466667 C0.873028846,0.943958974 0.85875,0.956594872 0.844615385,0.970666667 L0.885576923,0.929887179 L0.887163462,0.931466667 Z"></path>
                    </g>
                    <path d="M8.02696034,10 L0.434691825,10 C0.19466189,10 0,9.82776313 0,9.61538462 C0,9.4030061 0.194548185,9.23076923 0.434691825,9.23076923 L8.02684664,9.23076923 C8.26687657,9.23076923 8.46153846,9.4030061 8.46153846,9.61538462 C8.46153846,9.82776313 8.26699028,10 8.02696034,10 Z" id="Path" fill="#FFFFFF"></path>
                </g>
            </g>
        </g>
    </g>
</svg>