<?xml version="1.0" encoding="UTF-8"?>
<svg width="23px" height="23px" viewBox="0 0 16 19" version="1.1" xmlns="http://www.w3.org/2000/svg" xmlns:xlink="http://www.w3.org/1999/xlink">
    <!-- Generator: Sketch 52.3 (67297) - http://www.bohemiancoding.com/sketch -->
    <title>placeholder-id1-icn</title>
    <desc>Created with Sketch.</desc>
    <g id="Library" stroke="none" stroke-width="1" fill="none" fill-rule="evenodd">
        <g id="UI-Icons" transform="translate(-1050.000000, -236.000000)" fill="#A3A6B6" fill-rule="nonzero">
            <g id="placeholder-id1-icn" transform="translate(1050.000000, 236.000000)">
                <path d="M13.6567652,2.33832551 C12.1458348,0.830467215 10.1368291,0 8,0 C5.86302564,0 3.85416517,0.830467215 2.34308956,2.33832551 C0.832159189,3.84632875 0,5.85124969 0,7.98373413 C0,9.84848022 0.658290362,11.6632156 1.85358413,13.0936661 L1.85358413,13.093811 C2.15774567,13.4576569 2.49618708,13.7964249 2.85990267,14.1011276 L7.60505482,18.8367767 C7.71414046,18.9456406 7.85707023,19 8,19 C8.14292977,19 8.28585954,18.9456406 8.39479989,18.8367767 L13.1400973,14.1011276 C13.5038129,13.7964249 13.8422543,13.4576569 14.1462706,13.0936661 C15.3417096,11.6632156 16,9.84848022 16,7.98373413 C16,5.85124969 15.1678408,3.84632875 13.6567652,2.33832551 Z M6.61,10.6960614 C6.61,11.0448666 6.44877244,11.1925808 6.25,11.1925808 C6.05122756,11.1925808 5.89,11.0448666 5.89,10.6960614 L5.89,6.78678274 C5.89,6.43814175 6.05122756,6.2894832 6.25,6.2894832 C6.44877244,6.2894832 6.61,6.43814175 6.61,6.78678274 L6.61,10.6960614 Z M9.401,6.314 C11.074,6.314 11.872,7.574 11.872,8.757 C11.872,9.933 11.074,11.2 9.401,11.2 L7.994,11.2 C7.819,11.2 7.679,11.06 7.679,10.885 L7.679,6.636 C7.679,6.461 7.819,6.314 7.994,6.314 L9.401,6.314 Z M9.324,10.605 C10.493,10.605 11.242,9.849 11.242,8.757 C11.242,7.665 10.493,6.909 9.324,6.909 L8.316,6.909 L8.316,10.605 L9.324,10.605 Z" id="Shape"></path>
            </g>
        </g>
    </g>
</svg>