<?xml version="1.0" encoding="UTF-8"?>
<svg width="16px" height="16px" viewBox="0 0 16 16" version="1.1" xmlns="http://www.w3.org/2000/svg" xmlns:xlink="http://www.w3.org/1999/xlink">
    <!-- Generator: Sketch 52.3 (67297) - http://www.bohemiancoding.com/sketch -->
    <title>puzzle1-icn</title>
    <desc>Created with Sketch.</desc>
    <g id="Library" stroke="none" stroke-width="1" fill="none" fill-rule="evenodd">
        <g id="UI-Icons" transform="translate(-984.000000, -237.000000)" fill="#8686A5">
            <g id="puzzle1-icn" transform="translate(984.000000, 237.000000)">
                <path d="M12.972973,7.61746362 L14.1039501,7.61746362 C16.6320166,7.61746362 16.6320166,11.4095634 14.1039501,11.4095634 L12.972973,11.4095634 L12.972973,14.4698545 C12.972973,15.3347193 12.3076923,16 11.4428274,16 L8.38253638,16 L8.38253638,14.8690229 C8.38253638,12.3409563 4.59043659,12.3409563 4.59043659,14.8690229 L4.59043659,16 L1.53014553,16 C0.665280665,16 0,15.3347193 0,14.4698545 L0,11.4095634 L1.13097713,11.4095634 C3.65904366,11.4095634 3.65904366,7.61746362 1.13097713,7.61746362 L0,7.61746362 L0,4.55717256 C0,3.69230769 0.665280665,3.02702703 1.53014553,3.02702703 L4.59043659,3.02702703 L4.59043659,1.8960499 C4.59043659,-0.632016632 8.38253638,-0.632016632 8.38253638,1.8960499 L8.38253638,3.02702703 L11.4428274,3.02702703 C12.3076923,3.02702703 12.972973,3.69230769 12.972973,4.55717256 L12.972973,7.61746362 Z" id="Path"></path>
            </g>
        </g>
    </g>
</svg>