<?xml version="1.0" encoding="UTF-8"?>
<svg width="23px" height="23px" viewBox="0 0 15 16" version="1.1" xmlns="http://www.w3.org/2000/svg" xmlns:xlink="http://www.w3.org/1999/xlink">
    <!-- Generator: Sketch 52.3 (67297) - http://www.bohemiancoding.com/sketch -->
    <title>regulatory-nb1-icn</title>
    <desc>Created with Sketch.</desc>
    <g id="Library" stroke="none" stroke-width="1" fill="none" fill-rule="evenodd">
        <g id="UI-Icons" transform="translate(-1115.000000, -237.000000)" fill="#A3A6B6">
            <g id="regulatory-nb1-icn" transform="translate(1115.000000, 237.000000)">
                <path d="M14.9911005,2.27610734 C14.9765908,2.00093864 14.7268048,1.78484194 14.4239392,1.78484194 C14.4226535,1.78484194 14.4210005,1.78484194 14.4197149,1.78484194 L14.3087805,1.78517568 C10.7676958,1.78517568 8.63808608,0.628933179 7.88689126,0.131660461 C7.80754745,0.0792632688 7.68798075,0 7.49990654,0 C7.31219967,0 7.19263296,0.0790963987 7.11365649,0.131493591 C6.36246167,0.628599439 4.23321924,1.78500881 0.691216278,1.78517568 L0.580281884,1.78484194 C0.578996221,1.78484194 0.577343225,1.78484194 0.576057561,1.78484194 C0.273375639,1.78484194 0.0234059197,2.00093864 0.00889628871,2.27610734 C-0.011306995,2.65974156 -0.396822381,11.7202841 7.14065542,15.8890314 L7.20291827,15.9235735 C7.29420038,15.9746358 7.39705346,16 7.49990654,16 C7.60275962,16 7.70579637,15.9746358 7.79689481,15.9235735 L7.857321,15.8900326 C15.3970028,11.7202841 15.0113037,2.65974156 14.9911005,2.27610734 Z" id="Path"></path>
            </g>
        </g>
    </g>
</svg>