<?xml version="1.0" encoding="UTF-8"?>
<svg width="46px" height="40px" viewBox="0 0 46 40" version="1.1" xmlns="http://www.w3.org/2000/svg" xmlns:xlink="http://www.w3.org/1999/xlink">
    <!-- Generator: Sketch 52.3 (67297) - http://www.bohemiancoding.com/sketch -->
    <title>Renault white logo</title>
    <desc>Created with Sketch.</desc>
    <defs>
        <filter x="-37.5%" y="-43.5%" width="175.0%" height="187.1%" filterUnits="objectBoundingBox" id="filter-1">
            <feOffset dx="0" dy="2" in="SourceAlpha" result="shadowOffsetOuter1"></feOffset>
            <feGaussianBlur stdDeviation="2.5" in="shadowOffsetOuter1" result="shadowBlurOuter1"></feGaussianBlur>
            <feColorMatrix values="0 0 0 0 1   0 0 0 0 1   0 0 0 0 1  0 0 0 0.2 0" type="matrix" in="shadowBlurOuter1" result="shadowMatrixOuter1"></feColorMatrix>
            <feMerge>
                <feMergeNode in="shadowMatrixOuter1"></feMergeNode>
                <feMergeNode in="SourceGraphic"></feMergeNode>
            </feMerge>
        </filter>
        <polygon id="path-2" points="0 0.0143574149 19.8940856 0.0143574149 19.8940856 11.1376085 0 11.1376085"></polygon>
        <radialGradient cx="43.5%" cy="25.7886427%" fx="43.5%" fy="25.7886427%" r="63.212%" gradientTransform="translate(0.435000,0.257886),scale(1.000000,0.784055),translate(-0.435000,-0.257886)" id="radialGradient-4">
            <stop stop-color="#FFFFFF" offset="40.1%"></stop>
            <stop stop-color="#919191" offset="100%"></stop>
        </radialGradient>
        <linearGradient x1="49.901%" y1="100.109%" x2="49.901%" y2="0.13%" id="linearGradient-5">
            <stop stop-color="#BFBFBF" offset="35.71%"></stop>
            <stop stop-color="#BABABA" offset="47.44%"></stop>
            <stop stop-color="#ACACAC" offset="60.97%"></stop>
            <stop stop-color="#959595" offset="75.39%"></stop>
            <stop stop-color="#757575" offset="90.34%"></stop>
            <stop stop-color="#666666" offset="96.31%"></stop>
            <stop stop-color="#303030" offset="100%"></stop>
        </linearGradient>
    </defs>
    <g id="End-UI" stroke="none" stroke-width="1" fill="none" fill-rule="evenodd">
        <g id="VIN-détail-+-exemption-button" transform="translate(-1285.000000, -23.000000)">
            <g id="Top-area">
                <g id="Content" transform="translate(40.000000, 25.000000)">
                    <g id="User-login" transform="translate(1107.000000, 0.000000)">
                        <g id="Renault-white-logo" filter="url(#filter-1)" transform="translate(143.000000, 0.000000)">
                            <path d="M24.2039246,7.08686578 C23.0428055,4.95947144 21.2284805,1.92693572 21.0422863,1.66662954 C21.0062233,1.6100267 20.9600364,1.5608925 20.9061509,1.52180692 C20.8847843,1.50744951 20.8634178,1.49246786 20.8347256,1.48560127 C20.7919925,1.47124385 20.6839388,1.47811044 20.611903,1.48560127 C20.5691699,1.49246786 20.5191112,1.48560127 20.4837038,1.48560127 C19.838273,1.46228659 19.192506,1.45000824 18.5466738,1.44877138 C17.600441,1.44877138 16.4680141,1.47748621 16.3172273,1.49246786 C16.2378659,1.49933445 16.2097841,1.51369186 16.1810919,1.52804928 C16.145074,1.54989752 16.1017305,1.57174576 16.0449565,1.65851448 C15.8654775,1.92631148 14.0444373,4.95135638 12.8827077,7.07875072 C12.0585695,8.59127317 11.2484722,10.1905643 10.904776,10.9290349 C10.8113737,11.1244205 10.7973328,11.2548857 10.7973328,11.3123154 C10.7973328,11.4209324 10.8327403,11.5513976 10.904776,11.6962202 C11.2484722,12.4340665 12.0658952,14.0333576 12.8827077,15.5458801 C14.0444373,17.6738987 15.8581518,20.7058102 16.0449565,20.9667406 C16.0736487,21.010437 16.1023409,21.0391519 16.1237075,21.0678667 C16.1664406,21.1115632 16.2030689,21.140278 16.245802,21.1552597 C16.2885351,21.1689928 16.3819374,21.161502 16.4606884,21.1552597 C16.5034215,21.1477688 16.5540908,21.1552597 16.5894982,21.1552597 C17.0558993,21.1689928 17.7725943,21.1908411 18.5326329,21.1908411 C19.4788656,21.1908411 20.5758851,21.1689928 20.7407128,21.1471446 L20.769405,21.1471446 C20.8341151,21.1409023 20.8695225,21.1327872 20.8841739,21.1184298 C20.9195813,21.1040724 20.9555992,21.0747333 21.0343502,20.9667406 C21.2211548,20.7058102 23.0275437,17.6882561 24.1886628,15.5608617 C25.0134115,14.0483393 25.8235088,12.4490481 26.1678154,11.7105776 C26.2606073,11.5151919 26.2752586,11.3635027 26.2752586,11.2985822 C26.2825843,11.189341 26.2465664,11.0882149 26.1818563,10.9365257 C25.8387706,10.1986794 25.0213476,8.59938823 24.2039246,7.08686578 Z" id="Path" stroke="#FFFFFF" fill="#FFFFFF" fill-rule="nonzero"></path>
                            <path d="M20.8273999,11.7186927 C20.05271,13.4771639 19.5008427,14.5695759 18.6834197,16.1545096 C18.6333609,16.2487692 18.5979535,16.3068231 18.5472842,16.3068231 C18.4898998,16.3068231 18.4544924,16.2487692 18.4111488,16.1545096 C17.5937258,14.5695759 17.0418585,13.4702973 16.267779,11.7186927 C16.2030689,11.5663792 16.1530102,11.4577623 16.1530102,11.3129396 C16.1530102,11.1756078 16.2030689,11.0669909 16.267779,10.9153017 C17.0418585,9.15683047 17.5937258,8.06379423 18.4111488,6.47886047 C18.4612076,6.38522516 18.4972255,6.32717126 18.5472842,6.32717126 C18.6046687,6.32717126 18.6406866,6.38460092 18.6834197,6.47886047 C19.5014531,8.06441846 20.05271,9.16369706 20.8273999,10.9153017 C20.8914995,11.0669909 20.9421688,11.1756078 20.9421688,11.3204305 C20.9421688,11.4652531 20.8914995,11.5738701 20.8273999,11.7186927 Z" id="Path" fill="#2E2E4B" fill-rule="nonzero"></path>
                            <g id="Group" transform="translate(8.353000, 11.457762)">
                                <g id="Clipped">
                                    <mask id="mask-3" fill="white">
                                        <use xlink:href="#path-2"></use>
                                    </mask>
                                    <g id="b"></g>
                                    <path d="M15.8509246,-4.37089648 C14.6898055,-6.49891506 12.8754805,-9.53082654 12.6892863,-9.79175695 C12.6532233,-9.8483598 12.6070364,-9.89749399 12.5531509,-9.93657957 C12.53163,-9.95288283 12.507445,-9.96514228 12.4817256,-9.97278523 C12.4389925,-9.98714264 12.3309388,-9.97965182 12.258903,-9.97278523 C12.2161699,-9.9652944 12.1661112,-9.97278523 12.1307038,-9.97278523 C11.4854695,-9.9956767 10.8399062,-10.0075388 10.1942842,-10.0083666 C9.24805149,-10.0083666 8.11562457,-9.97965182 7.9648378,-9.96467017 C7.91745257,-9.96319091 7.87096978,-9.9510418 7.82870238,-9.92908875 C7.79268449,-9.90724051 7.74934093,-9.88539227 7.69256696,-9.79862354 C7.51308798,-9.53082654 5.6920478,-6.50578165 4.53031818,-4.37838731 C3.70617999,-2.86586486 2.89608266,-1.26657369 2.55238651,-0.528103174 C2.45898419,-0.332717484 2.44494331,-0.202876515 2.44494331,-0.14482262 C2.44494331,-0.0362056549 2.48035073,0.0942595499 2.55238651,0.23908217 C2.89608266,0.976928448 3.71350566,2.57621962 4.53031818,4.08874207 C5.6920478,6.21676065 7.5057623,9.24867213 7.69256696,9.50960254 C7.72125918,9.55329902 7.7499514,9.58138961 7.77131794,9.61072868 C7.81405104,9.65442516 7.8506794,9.68313999 7.89341249,9.6974974 C7.93614558,9.71185482 8.02954791,9.70498823 8.10829889,9.6974974 C8.15103199,9.69000658 8.20170122,9.6974974 8.23710864,9.6974974 C8.70350981,9.71185482 9.42020481,9.73370306 10.1802434,9.73370306 C11.1264761,9.73370306 12.2234956,9.71185482 12.3883233,9.69000658 L12.4170155,9.69000658 C12.4817256,9.68313999 12.517133,9.67564916 12.5317843,9.66129175 C12.5671918,9.64693433 12.6032097,9.61759527 12.6819606,9.50960254 C12.8687653,9.24867213 14.6751541,6.23111806 15.8362733,4.10372372 C16.6610219,2.59057703 17.4717297,0.990661627 17.8154259,0.252815349 C17.9082177,0.0574296596 17.9228691,-0.0948837853 17.9228691,-0.15980427 C17.9301948,-0.268421235 17.8941769,-0.369547375 17.8294668,-0.521860819 C17.4857706,-1.25908286 16.6683476,-2.85837403 15.8509246,-4.37089648 Z M12.4743999,0.260306174 C11.69971,2.01940162 11.1478427,3.11181362 10.3304197,4.69674737 C10.2803609,4.79038269 10.2449535,4.84843658 10.1942842,4.84843658 C10.1368998,4.84843658 10.1014924,4.79100692 10.0581488,4.69674737 C9.24072582,3.11181362 8.68885847,2.01191079 7.91477904,0.260306174 C7.85006893,0.108616965 7.80001016,-1.0658141e-14 7.80001016,-0.14482262 C7.80001016,-0.282154414 7.85006893,-0.390771379 7.91477904,-0.542460589 C8.68885847,-2.30155603 9.24072582,-3.39396803 10.0581488,-4.97890179 C10.1082076,-5.0725371 10.1442255,-5.13121523 10.1942842,-5.13121523 C10.2516687,-5.13121523 10.2876866,-5.07316134 10.3304197,-4.97890179 C11.1484531,-3.39396803 11.69971,-2.29468944 12.4743999,-0.542460589 C12.5384995,-0.390771379 12.5891688,-0.282154414 12.5891688,-0.137331795 C12.5891688,0.00749082516 12.5384995,0.115483555 12.4743999,0.260306174 Z" id="Shape" fill="url(#radialGradient-4)" fill-rule="nonzero" mask="url(#mask-3)"></path>
                                </g>
                            </g>
                            <path d="M15.6652424,11.9646414 C15.6652424,11.9646414 15.4357047,11.5295493 15.428379,11.3628785 L15.428379,11.3129396 C15.4357047,11.2692432 15.4143382,11.2842248 15.3783203,11.3204305 C15.3136101,11.385351 15.1921261,11.4434048 14.9052039,11.4434048 L11.4566434,11.4434048 C11.3064671,11.4434048 11.1056216,11.427799 11.1056216,11.674372 C11.1056216,11.8191946 11.2277161,12.1019732 11.4780099,12.6013616 C12.8717284,15.3491271 14.3810062,18.033975 16.0016129,20.6483805 C16.0016129,20.6483805 16.2531277,21.0541335 16.2744942,21.0828484 C16.3031865,21.1115632 16.3318787,21.1265448 16.3892631,21.1265448 C16.3892631,21.1265448 17.4215725,19.2157602 18.2603621,17.1314381 C17.3459222,15.4353763 16.4805075,13.7121564 15.6652424,11.9640172 L15.6652424,11.9646414 Z" id="Path" fill="#FFFFFF"></path>
                            <path d="M15.7684123,11.9034664 C15.7684123,11.9034664 15.5280611,11.3366606 15.5280611,11.0245429 L15.2709875,11.0530408 C15.2789382,11.0065724 15.2557486,11.0225045 15.2166575,11.0610069 C15.146426,11.1300456 15.0145764,11.1917822 14.7031728,11.1917822 L10.9603666,11.1917822 C10.7973766,11.1917822 10.5793941,11.1751864 10.5793941,11.437401 C10.5793941,11.5914105 10.7119062,11.8921275 10.9835562,12.423195 C12.4961927,15.3452677 14.1342483,18.2004316 15.8931321,20.9806844 C15.8931321,20.9806844 16.1661072,21.4121767 16.1892968,21.4427131 C16.2204372,21.4732495 16.2515775,21.4891815 16.3138583,21.4891815 C16.3138583,21.4891815 17.605181,19.1713225 18.5155397,16.9547795 C17.8538971,15.7523441 16.938188,14.068573 15.7684123,11.9034664 Z" id="Path" fill="#FFFFFF"></path>
                            <path d="M26.0963901,11.3491453 C26.0609827,11.385351 25.952929,11.4434048 25.7240017,11.4434048 L22.8773674,11.4434048 C21.5727871,11.4434048 21.7089225,11.4071992 21.3652264,12.1019732 C21.2144396,12.4134667 21.0569377,12.774899 20.8988252,13.0789017 C19.7590726,15.4822081 16.984474,20.3231538 16.60476,20.9168017 C16.4612989,21.1415265 16.4399323,21.1552597 16.5473756,21.1552597 C16.5473756,21.1552597 17.4862826,21.1914653 18.540569,21.1914653 C20.1821302,21.1914653 20.7626898,21.1477688 20.7626898,21.1477688 C21.7162482,19.6570946 23.9817125,15.8729795 25.5945815,12.5938707 C25.9669699,11.8416671 26.1537745,11.5083253 26.132408,11.3491453 C26.1397337,11.3129396 26.1110415,11.3279213 26.0963901,11.3491453 Z" id="Path" fill="#FFFFFF"></path>
                            <path d="M26.3085457,11.4434048 L23.2819111,11.4434048 C21.8948388,11.4434048 21.6280959,10.9540043 21.262667,11.6487783 C21.1023456,11.9602718 20.8203045,12.5932465 20.6521942,12.8972492 C19.4403721,15.3005556 17.0163945,20.3231538 16.6126701,20.9168017 C16.4601376,21.1415265 16.43742,21.1552597 16.5516571,21.1552597 C16.5516571,21.1552597 17.7164351,21.1362212 18.820776,21.3244275 C20.6521942,21.6365452 20.9574306,21.3244275 20.9574306,21.3244275 C21.971285,19.8337533 24.4560869,15.8729795 26.1709419,12.5938707 C26.5668773,11.8416671 26.4744028,11.6025849 26.4516852,11.4434048 C26.5185275,11.4434048 26.4708143,11.4434048 26.3085457,11.4434048 Z" id="Path" fill="#FFFFFF"></path>
                            <path d="M20.690654,1.52180692 C20.6192287,1.52180692 20.5691699,1.57174576 20.4757676,1.7240592 C19.672996,2.9837663 16.8983974,8.25980415 15.7659704,10.7192917 C15.629835,11.0239186 15.5584097,11.1687413 15.5584097,11.3129396 L16.1456845,11.3129396 C16.1456845,11.1756078 16.1957433,11.0669909 16.2604534,10.9153017 C17.0345328,9.15683047 17.5870106,8.06379423 18.4038231,6.47886047 C18.4544924,6.38522516 18.4898998,6.32717126 18.540569,6.32717126 L18.7694963,5.65362123 C19.5728784,3.64233468 20.6912645,1.52118269 20.6912645,1.52118269 L20.690654,1.52180692 Z" id="Path" fill="#2E2E4B"></path>
                            <path d="M21.530054,11.3279213 C21.530054,11.1830987 21.4653439,11.0382761 21.3224933,10.74114 C20.5404777,9.06194668 19.7163395,7.42644986 18.7694963,5.66111206 L18.540569,6.33403785 C18.5979535,6.33403785 18.6333609,6.39209175 18.6767045,6.4863513 C19.493517,8.07128505 20.0459948,9.17056365 20.8200742,10.9221683 C20.8847843,11.0744817 20.9348431,11.1830987 20.9348431,11.3279213 L21.530054,11.3279213 Z" id="Path" fill="#2E2E4B"></path>
                            <path d="M18.540569,16.3136897 C18.4831846,16.3136897 18.4471667,16.25626 18.4038231,16.1620005 C17.5870106,14.5770667 17.0345328,13.4771639 16.2610638,11.7255593 C16.1957433,11.5738701 16.1456845,11.4652531 16.1456845,11.3204305 L15.5577992,11.3204305 C15.5577992,11.4652531 15.6225094,11.6169423 15.76536,11.9134541 C16.5467651,13.5926474 17.3647985,15.2281443 18.3110313,16.9947305 L18.540569,16.3143139 L18.540569,16.3136897 Z" id="Path" fill="url(#linearGradient-5)"></path>
                            <path d="M18.4038231,16.1620005 C17.5870106,14.5770667 17.0345328,13.4771639 16.2610638,11.7255593 C16.1957433,11.5738701 16.1456845,11.4652531 16.1456845,11.3204305 C15.978008,11.3204305 15.8522506,11.3204305 15.7684123,11.3204305 C15.7216094,11.3204305 15.6514051,11.3204305 15.5577992,11.3204305 C15.5577992,11.4652531 15.6225094,11.6169423 15.76536,11.9134541 C16.5467651,13.5926474 17.3647985,15.2281443 18.3110313,16.9947305 L18.540569,16.3143139 C18.4831846,16.3136897 18.4471667,16.25626 18.4038231,16.1620005 Z" id="Path" fill="#2E2E4B"></path>
                            <path d="M16.3825479,21.119054 C16.4466475,21.119054 16.526009,21.0397761 16.6120857,20.9018201 C16.6334522,20.8662387 16.6694701,20.8081848 16.7048775,20.74264 C17.3074141,19.7007911 20.232189,14.2587066 21.307842,11.9140784 C21.4439774,11.6100757 21.5154027,11.4646289 21.5154027,11.3129396 L20.9275174,11.3129396 C20.9275174,11.4577623 20.8774587,11.5663792 20.8127486,11.7112018 C20.0386691,13.4696731 19.4868018,14.5627093 18.6693788,16.147643 C18.61932,16.2412784 18.5833021,16.2993323 18.5332434,16.2993323 L18.2963799,16.9797489 C17.4649161,19.1289915 16.3825479,21.119054 16.3825479,21.119054 Z" id="Path" fill="#2E2E4B"></path>
                            <path d="M16.1243179,21.0759818 C16.1029514,21.0466427 16.0742592,21.0179279 16.0449565,20.9742314 C15.8587623,20.7139252 14.0450478,17.6813895 12.8839287,15.5539952 C12.0597905,14.0414727 11.2490827,12.4421815 10.9053865,11.703711 C10.8333507,11.5520218 10.7979433,11.4215566 10.7979433,11.3204305 L10.4176188,11.3204305 C10.4176188,11.4508957 10.446311,11.6244331 10.5610799,11.8703819 C10.8333507,12.4634055 11.5866741,13.9615706 12.5542734,15.74189 C13.6079493,17.6813895 15.529107,20.9093109 15.7446039,21.2058227 C15.8300701,21.3287971 15.9094315,21.4012084 15.9808569,21.4449049 L16.1243179,21.0759818 Z" id="Path" fill="#FFFFFF"></path>
                            <path d="M15.9735312,21.4449049 C16.0742592,21.5098254 16.1749872,21.5173162 16.2891456,21.5322979 C16.5760678,21.5603885 17.8232636,21.5753701 18.540569,21.5753701 C19.257264,21.5753701 20.6051878,21.546031 20.791382,21.5316736 C20.8774587,21.524807 20.9635353,21.5173162 21.0422863,21.4811106 L20.8914995,21.119054 C20.870133,21.1265448 20.8347256,21.1409023 20.7773411,21.1483931 L20.7486489,21.1483931 C20.5838213,21.1696171 19.4794761,21.1920896 18.540569,21.1920896 C17.7805305,21.1920896 17.063225,21.1771079 16.5974343,21.1552597 L16.4686246,21.1552597 C16.3892631,21.1627505 16.3037969,21.1696171 16.2531277,21.1552597 C16.2063187,21.136565 16.1644863,21.106836 16.1310331,21.0684909 L15.9735312,21.4449049 Z" id="Path" fill="#FFFFFF"></path>
                            <path d="M26.6702345,11.3204305 C26.6702345,11.2118135 26.6488679,11.0239186 26.5267734,10.7704791 C26.2398512,10.1624737 25.314985,8.3241004 24.5335799,6.89897092 C23.4939448,4.98818627 21.5654614,1.73904085 21.3438598,1.4350382 C21.229091,1.27585816 21.1362991,1.20344685 21.0502225,1.16037461 L20.9067614,1.5143161 C20.9494945,1.54365516 20.9922275,1.59421823 21.0428968,1.65913872 C21.229091,1.91944489 23.0434159,4.95198061 24.2045351,7.07937496 C25.0286733,8.5918974 25.8393811,10.1911886 26.1830772,10.9296591 C26.255113,11.0813483 26.2905204,11.1830987 26.2905204,11.2917156 L26.670845,11.3204305 L26.6702345,11.3204305 Z" id="Path" fill="#FFFFFF"></path>
                            <path d="M16.0309156,1.1672412 L16.1817024,1.5355401 C16.2239698,1.51358705 16.2704526,1.50143794 16.3178378,1.49995868 C16.4686246,1.48560127 17.6010515,1.4562622 18.5472842,1.4562622 C19.3146485,1.4562622 20.0960536,1.47124385 20.4830933,1.49246786 L20.611903,1.49246786 C20.6912645,1.48560127 20.791382,1.47811044 20.8347256,1.49246786 C20.8598534,1.50159864 20.8838302,1.51375252 20.9061509,1.52867351 L21.049612,1.17410779 C20.9635353,1.13790213 20.8847843,1.13041131 20.7840563,1.12416895 C20.490419,1.09482989 19.2072053,1.08047247 18.540569,1.08047247 C17.9526838,1.08047247 16.5833934,1.09482989 16.2604534,1.13041131 C16.1821041,1.12180757 16.1029222,1.1345125 16.0309156,1.1672412 Z" id="Path" fill="#FFFFFF"></path>
                            <path d="M16.0309156,1.1672412 C15.9088211,1.21718003 15.8373958,1.30457299 15.7299526,1.4562622 C15.5077405,1.74590744 13.5865828,5.0169011 12.5542734,6.89897092 C11.8302527,8.22297426 10.6685231,10.5170395 10.5610799,10.7704791 C10.4536367,11.0239186 10.4176188,11.1899653 10.4176188,11.3204305 L10.7979433,11.3204305 C10.7979433,11.2623766 10.8119842,11.1325356 10.9053865,10.9371499 C11.2490827,10.1986794 12.0665057,8.59938823 12.8833182,7.08686578 C14.0450478,4.95947144 15.866088,1.93442654 16.045567,1.66662954 C16.1029514,1.57236999 16.1456845,1.55801258 16.1817024,1.5355401 L16.0309156,1.1672412 Z" id="Path" fill="#FFFFFF"></path>
                            <path d="M21.049612,21.474244 C21.1424038,21.4305475 21.2358062,21.3581362 21.3432494,21.1989561 C21.5508101,20.9093109 23.6160394,17.4285741 24.5335799,15.7350234 C25.4511204,14.0489635 26.4193302,12.1019732 26.5267734,11.8635153 C26.6555831,11.5663792 26.6702345,11.4215566 26.6702345,11.3129396 L26.28991,11.2917156 C26.28991,11.3491453 26.2758691,11.5083253 26.1824668,11.703711 C25.8387706,12.4421815 25.0213476,14.0414727 24.2039246,15.5539952 C23.0428055,17.6813895 21.2358062,20.6995678 21.049612,20.959874 C20.9702505,21.0684909 20.9421688,21.0972058 20.8988252,21.1121874 L21.049612,21.474244 Z" id="Path" fill="#FFFFFF"></path>
                            <path d="M20.6051878,1.48560127 L20.6265544,1.48560127 C20.6265544,1.48560127 20.5331521,1.55801258 20.2822478,1.55801258 C19.9886104,1.55801258 19.3787481,1.54365516 18.8915909,1.54365516 C18.0646552,1.5378586 17.2376913,1.54972166 16.4112401,1.57923658 C16.1456845,1.59421823 16.1316436,1.62293306 15.9594903,1.80396134 L16.0449565,1.67349613 C16.1029514,1.57986082 16.1456845,1.56487917 16.1817024,1.54365516 C16.2239208,1.52148551 16.270406,1.50912261 16.3178378,1.50744951 C16.4686246,1.49246786 17.6010515,1.46375303 18.5472842,1.46375303 C19.3146485,1.46375303 20.0960536,1.47811044 20.4830933,1.49995868 C20.5117855,1.48560127 20.5624547,1.49246786 20.6051878,1.48560127" id="Path" fill="#FFFFFF"></path>
                            <path d="M20.8273999,10.9221683 C20.5183307,10.2161005 20.19553,9.51640171 19.8591901,8.82348875 C19.3146485,7.70173768 18.7053967,6.52942354 18.6834197,6.47886047 C18.6333609,6.38522516 18.5979535,6.32717126 18.5472842,6.32717126 C18.4972255,6.32717126 18.4618181,6.3771101 18.4111488,6.47886047 C18.3824566,6.52942354 17.7658791,7.73107674 17.2280527,8.82348875 C16.6975518,9.9096584 16.2891456,10.8647386 16.2604534,10.9221683 C16.2030689,11.0451426 16.1456845,11.1830987 16.1456845,11.3204305 C16.1456845,11.4577623 16.1957433,11.5738701 16.2604534,11.7261835 C16.2891456,11.7979706 16.7335697,12.7967473 17.2280527,13.8317296 C17.7732048,14.9534807 18.3824566,16.118304 18.4038231,16.1694913 C18.4465562,16.2631266 18.4898998,16.3211805 18.540569,16.3211805 C18.5906278,16.3211805 18.6333609,16.2631266 18.6767045,16.1694913 C18.698071,16.118304 19.3073228,14.9603473 19.8524749,13.8317296 C20.3542835,12.8042381 20.791382,11.8054614 20.8273999,11.7255593 C20.8914995,11.5663792 20.9421688,11.4652531 20.9421688,11.3279213 C20.9421688,11.1905895 20.8914995,11.0744817 20.8273999,10.9221683 Z M20.7266719,11.6675054 L20.7266719,11.6749962 C20.7199567,11.682487 20.2749221,12.7024877 19.7590726,13.7736757 C19.3791868,14.5494827 18.9919252,15.3214904 18.597343,16.0895892 L18.5906278,16.1039466 C18.5686508,16.1401522 18.5546099,16.1694913 18.5478947,16.1694913 C18.540569,16.1694913 18.5259177,16.1401522 18.5045511,16.1039466 C18.5045511,16.09708 18.4898998,16.0820983 18.4758589,16.0458927 C18.084921,15.2906385 17.7023338,14.5308956 17.3281702,13.7668091 C16.9938333,13.0727936 16.6712521,12.3729212 16.3605709,11.6675054 L16.3538557,11.6606388 C16.2964713,11.5301736 16.2531277,11.4215566 16.2531277,11.3129396 C16.2531277,11.2049469 16.3037969,11.0819725 16.3605709,10.9658647 C16.3605709,10.9583739 16.3752222,10.9371499 16.3892631,10.9078108 C16.6889245,10.2234507 17.0021618,9.54539088 17.3287807,8.87405182 C17.8733223,7.75979157 18.5045511,6.54378096 18.5045511,6.53691437 C18.518592,6.50070871 18.540569,6.47199388 18.5472842,6.47199388 C18.5546099,6.47199388 18.5759765,6.50070871 18.5900173,6.53691437 C18.597343,6.54378096 19.2065948,7.72358592 19.7663983,8.87405182 C20.2535555,9.88781016 20.6839388,10.8572478 20.7339976,10.9652405 C20.7987077,11.1106874 20.8341151,11.2049469 20.8341151,11.3204305 C20.8273999,11.4365383 20.791382,11.523307 20.7266719,11.6675054 Z" id="Shape" stroke="#2E2E4B" fill-rule="nonzero"></path>
                            <path d="M26.5267734,10.7704791 C26.2325255,10.1481163 25.314985,8.3241004 24.5335799,6.89897092 C23.4652526,4.94511402 21.5587462,1.73155003 21.3432494,1.4350382 C21.128363,1.14539296 21.0135941,1.13103554 20.8127486,1.1091873 L20.7840563,1.1091873 C20.4971342,1.08047247 19.2713049,1.06549082 18.540569,1.06549082 C17.9093402,1.06549082 16.5760678,1.08047247 16.2604534,1.11667813 C15.966816,1.14539296 15.888065,1.23965251 15.7232374,1.4562622 C15.4936996,1.76026486 13.5578906,5.06746417 12.5469477,6.89897092 C11.8156014,8.23046509 10.6611974,10.5245303 10.5537542,10.7704791 C10.4536367,10.9952038 10.4102931,11.1687413 10.4102931,11.3204305 C10.4102931,11.4871013 10.4530262,11.6606388 10.5537542,11.8703819 C10.7979433,12.3984851 11.5286792,13.8679353 12.5469477,15.74189 C13.6079493,17.6957469 15.529107,20.9236683 15.7372782,21.2058227 C15.9521646,21.5029588 16.0956257,21.5173162 16.2891456,21.5316736 C16.5833934,21.5603885 17.8592815,21.5753701 18.540569,21.5753701 C19.279241,21.5753701 20.611903,21.546031 20.791382,21.5316736 C20.970861,21.5173162 21.128363,21.5029588 21.3432494,21.2058227 C21.5367692,20.9380257 23.6019985,17.457289 24.5335799,15.74189 C25.4224282,14.0995266 26.4120045,12.1306881 26.5267734,11.8703819 C26.6488679,11.5882275 26.6702345,11.4365383 26.6702345,11.3204305 C26.6702345,11.2267952 26.6482575,11.0307852 26.5267734,10.7704791 Z M26.4260454,11.8273096 C26.311887,12.080125 25.3296363,14.0489635 24.4401776,15.6913269 C23.5159218,17.3992351 21.4506926,20.8731053 21.2571727,21.1409023 C21.0783042,21.3943418 20.9635353,21.4086992 20.7840563,21.4230567 C20.6051878,21.4374141 19.2713049,21.4667531 18.540569,21.4667531 C17.8592815,21.4667531 16.5901086,21.4449049 16.2964713,21.4230567 C16.1096666,21.4086992 16.0095491,21.3943418 15.8233549,21.1409023 C15.6218989,20.8587478 13.7013517,17.6383173 12.64035,15.6913269 C11.6220815,13.824863 10.8907352,12.3554128 10.6544822,11.8273096 C10.5610799,11.6319239 10.525062,11.4721197 10.525062,11.3204305 C10.525062,11.1830987 10.5677951,11.0239186 10.6611974,10.8135513 C10.7692511,10.5676025 11.9230446,8.28102816 12.6470652,6.94953399 C13.6580081,5.11865147 15.5864915,1.81831875 15.8160292,1.5143161 C15.9735312,1.30457299 16.0309156,1.23965251 16.2818199,1.21780427 C16.5901086,1.1884652 17.9239916,1.1672412 18.5472842,1.1672412 C19.2786306,1.1672412 20.4977446,1.18159861 20.7773411,1.21093768 L20.8054229,1.21093768 C20.9922275,1.23216168 21.0783042,1.23965251 21.2571727,1.49246786 C21.4726696,1.7821131 23.3724608,4.98818627 24.4401776,6.94204316 C25.2148675,8.36779688 26.132408,10.184322 26.4260454,10.8060605 C26.5408143,11.0451426 26.5554656,11.2261709 26.5554656,11.3129396 C26.5554656,11.4290474 26.5408143,11.5663792 26.4260454,11.8273096 Z" id="Shape" fill="#FFFFFF" fill-rule="nonzero"></path>
                            <g id="Text" transform="translate(0.000000, 26.000000)" fill="#FFFFFF" fill-rule="nonzero">
                                <path d="M36,0.0077309625 L36,0.916119057 L34.2927253,0.916119057 L34.2927253,4.91431517 L33.1425233,4.91431517 L33.1425233,0.914830563 L31.4346476,0.914830563 L31.4346476,0.00708671563 L36,0.00708671563 L36,0.0077309625 Z M31.9214102,4.00657132 L31.9214102,4.91431517 L28.2664842,4.91431517 L28.2664842,0 L29.4166861,0 L29.4166861,3.99884036 L31.9214102,3.99884036 L31.9214102,4.00657132 Z M9.75147731,4.00657132 L9.75147731,4.91431517 L5.90545187,4.91431517 L5.90545187,0 L9.68116716,0 L9.68116716,0.908388094 L7.0562548,0.908388094 L7.0562548,1.98750161 L9.44800187,1.98750161 L9.44800187,2.87205257 L7.0562548,2.87205257 L7.0562548,4.00592707 L9.75147731,4.00657132 Z M3.8382132,3.09109651 C4.33218709,2.79345445 4.63566254,2.20654555 4.63566254,1.59644376 C4.63566254,1.08748873 4.50165259,0.68869991 4.2192101,0.430356913 C3.8947017,0.133359103 3.44339465,0.0077309625 2.68861216,0.0077309625 L0.0492772009,0.0077309625 L0,0.305373019 C0,0.305373019 0.0492772009,0.3917021 0.0985544019,0.501224069 C0.18328715,0.65777606 0.176676794,0.704161835 0.176676794,0.805952841 L0.176676794,4.92204613 L1.32627784,4.92204613 L1.32627784,3.34943951 L2.75892231,3.34943951 L3.5281274,4.92204613 L4.79731579,4.92204613 L3.83761226,3.09109651 L3.8382132,3.09109651 Z M3.2601075,2.29287463 C3.16816346,2.38693467 3.06960905,2.4339647 2.89954262,2.4339647 L1.32687878,2.4339647 L1.32687878,0.939311944 L2.56902481,0.939311944 C2.93559911,0.939311944 3.13390979,0.986341966 3.2673188,1.1035949 C3.39471839,1.22084783 3.45781725,1.39350599 3.45781725,1.6589357 C3.46502854,1.92500966 3.40132875,2.1440536 3.26070844,2.29287463 L3.2601075,2.29287463 Z M14.5710279,0.0077309625 L14.5710279,3.26311042 C14.3024071,2.8875145 14.0205656,2.52738049 13.5404133,1.9488468 C13.1522051,1.47854658 12.3409341,0.508955032 11.931693,0.0077309625 L10.8169465,0.0077309625 L10.7676693,0.305373019 C10.7676693,0.305373019 10.8169465,0.3917021 10.8662238,0.501224069 C10.9299235,0.618477 10.9443461,0.673237985 10.9443461,0.735729932 L10.9443461,4.92204613 L11.9809702,4.92204613 L11.9809702,1.66666667 C12.1852903,1.97203969 12.5524655,2.44169566 12.7994525,2.73869347 C13.2862151,3.32560237 14.0271759,4.24107718 14.5992722,4.92977709 L15.5938303,4.92977709 L15.5938303,0.0161061719 L14.5710279,0.0077309625 Z M25.8531032,0.0077309625 L25.8531032,3.01249839 C25.8531032,3.34943951 25.7900043,3.54464631 25.6487831,3.70184255 C25.4654959,3.89704935 25.1548092,3.98273418 24.7101125,3.98273418 C24.2588055,3.98273418 23.9409074,3.88931839 23.7576203,3.7011983 C23.6097887,3.54464631 23.5533002,3.34943951 23.5533002,3.01249839 L23.5533002,0.0077309625 L22.2690882,0.0077309625 L22.219811,0.305373019 C22.219811,0.305373019 22.2690882,0.3917021 22.3183654,0.501224069 C22.3748539,0.610746038 22.3886756,0.665507022 22.3964878,0.727998969 L22.3964878,3.06017266 C22.3964878,4.34286819 23.1789136,5 24.6962909,5 L24.7317464,5 C26.2485227,5 26.9894835,4.36670532 26.9894835,3.05952841 L26.9894835,0.0077309625 L25.8537041,0.0077309625 L25.8531032,0.0077309625 Z M19.827463,0.0077309625 L18.3882082,0.0077309625 C17.6903966,1.61703112 17.0548605,3.25653239 16.4832237,4.92204613 L17.6394351,4.92204613 C17.7313792,4.64051024 17.8299336,4.35833011 17.9290889,4.06906327 L20.2925917,4.06906327 C20.3911461,4.35897436 20.4903015,4.64051024 20.5816446,4.92204613 L21.7390579,4.92204613 C21.1652442,3.25633081 20.5272984,1.61681961 19.8268621,0.0077309625 L19.827463,0.0077309625 Z M18.2541982,3.13812653 C18.5576737,2.30060559 18.8611491,1.51011468 19.1075351,0.892281922 C19.3545221,1.50238371 19.6579975,2.30060559 19.961473,3.13812653 L18.2541982,3.13812653 Z" id="Shape"></path>
                            </g>
                        </g>
                    </g>
                </g>
            </g>
        </g>
    </g>
</svg>