<?xml version="1.0" encoding="UTF-8"?>
<svg width="9px" height="13px" viewBox="0 0 9 13" version="1.1" xmlns="http://www.w3.org/2000/svg" xmlns:xlink="http://www.w3.org/1999/xlink">
    <!-- Generator: Sketch 52.3 (67297) - http://www.bohemiancoding.com/sketch -->
    <title>sign-out-icn</title>
    <desc>Created with Sketch.</desc>
    <g id="End-UI" stroke="none" stroke-width="1" fill="none" fill-rule="evenodd">
        <g id="Log-out" transform="translate(-1239.000000, -78.000000)">
            <g id="sign-out-icn" transform="translate(1235.000000, 78.000000)">
                <rect id="Rectangle" x="0" y="0" width="13" height="13"></rect>
                <path d="M9.54021828,12.0523 L6.21715069,12.0523 C5.52885749,12.0515835 4.97106835,11.506059 4.97033574,10.8329 L4.97033574,2.1671 C4.97106835,1.49394099 5.52885749,0.948416508 6.21715069,0.9477 L9.54021828,0.9477 C9.79795003,0.934492755 10,0.726260516 10,0.47385 C10,0.221439484 9.79795003,0.0132072449 9.54021828,0 L6.21715069,0 C4.99347451,0.00071619924 4.00146614,0.970330639 4,2.1671 L4,10.8329 C4.00146614,12.0296694 4.99347451,12.9992838 6.21715069,13 L9.54021828,13 C9.79795003,12.9867928 10,12.7785605 10,12.52615 C10,12.2737395 9.79795003,12.0655072 9.54021828,12.0523 Z" id="Path" fill="#FFFFFF"></path>
                <path d="M12.9229041,6.31090344 L10.7985745,4.11936027 C10.7278866,4.04556478 10.6296956,4.00258405 10.5261233,4.00010134 C10.4227406,3.99779025 10.3225531,4.03508539 10.2470911,4.10397203 C10.0953365,4.25045491 10.0906709,4.48796304 10.2365616,4.63999604 L11.6672594,6.11470326 L6.39592112,6.11470326 C6.28598301,6.11441483 6.18089896,6.15879553 6.10595714,6.23716528 C6.03101532,6.31553503 5.99300176,6.42079739 6.00106432,6.52762128 C6.01651642,6.73455419 6.19760952,6.89227024 6.4103992,6.88411573 L11.6672594,6.88411573 L10.2365616,8.35882295 C10.1340165,8.47040356 10.1072602,8.62982572 10.1679859,8.76741782 C10.2287116,8.90500992 10.3658789,8.9957569 10.5195423,9 L10.531388,9 C10.6349604,8.9975173 10.7331514,8.95453657 10.8038392,8.88074107 L12.9229041,6.6891979 C13.0256986,6.5829859 13.0256986,6.41711544 12.9229041,6.31090344 Z" id="Path" fill="#FFFFFF"></path>
            </g>
        </g>
    </g>
</svg>