<?xml version="1.0" encoding="UTF-8"?>
<svg width="22px" height="14px" viewBox="0 0 22 14" version="1.1" xmlns="http://www.w3.org/2000/svg" xmlns:xlink="http://www.w3.org/1999/xlink">
    <!-- Generator: Sketch 52.3 (67297) - http://www.bohemiancoding.com/sketch -->
    <title>icon sort by</title>
    <desc>Created with Sketch.</desc>
    <g id="Page-1" stroke="none" stroke-width="1" fill="none" fill-rule="evenodd">
        <g id="Artboard" fill="#C9C8CF">
            <g id="icon-sort-by">
                <path d="M3.33953612,0 C2.9383988,0 2.61552853,0.32942115 2.61552853,0.738670308 L2.61552853,10.8135762 L1.20377333,9.60498336 C1.06779782,9.48857935 0.90319576,9.4310371 0.739244916,9.4296038 C0.528451848,9.42775973 0.318688362,9.51877381 0.171992526,9.69713461 C-0.0888004265,10.0142205 -0.0485163833,10.4836687 0.262284288,10.7497355 L1.38435669,11.7103472 L1.38435669,11.7104302 L2.17666111,12.3886668 L2.786788,12.9109923 C2.78720827,12.9113661 2.78764079,12.9116859 2.78806106,12.9120472 L3.34766285,13.3910552 L3.34782606,13.3913043 L3.34798927,13.3910552 L3.90798971,12.9116415 L4.20317108,12.6590368 L5.31137704,11.7104306 L5.31129543,11.7103476 L6.43336787,10.7497359 C6.74416863,10.4836692 6.78445259,10.0142209 6.52365955,9.69713503 C6.26286693,9.38004916 5.80275952,9.338917 5.49195918,9.60498377 L4.08020356,10.8135767 L4.08020356,0.738670723 C4.08020356,0.329421566 3.75725332,4.15329583e-07 3.35611641,4.15329583e-07 L3.3395402,4.15329583e-07 L3.33953612,0 Z M9.45164637,0 C8.98465173,0 8.60869565,0.426608696 8.60869565,0.956521739 C8.60869565,1.4864343 8.98465173,1.91304348 9.45164637,1.91304348 L21.1570497,1.91304348 C21.6240439,1.91304348 22,1.4864343 22,0.956521739 C22,0.426608696 21.6240439,0 21.1570497,0 L9.45164637,0 Z M9.42871112,3.82608696 C8.97442261,3.82608696 8.60869565,4.25269565 8.60869565,4.7826087 C8.60869565,5.31252174 8.97442261,5.73913043 9.42871112,5.73913043 L18.3104197,5.73913043 C18.7647082,5.73913043 19.1304348,5.31252174 19.1304348,4.7826087 C19.1304348,4.25269565 18.7647082,3.82608696 18.3104197,3.82608696 L9.42871112,3.82608696 Z M9.48927544,7.65217391 C9.0014343,7.65217391 8.60869565,8.07878261 8.60869565,8.60869565 C8.60869565,9.1386087 9.0014343,9.56521739 9.48927544,9.56521739 L16.336812,9.56521739 C16.8246531,9.56521739 17.2173913,9.1386087 17.2173913,8.60869565 C17.2173913,8.07878261 16.8246531,7.65217391 16.336812,7.65217391 L9.48927544,7.65217391 Z M9.46259425,11.4782609 C8.98953449,11.4782609 8.60869565,11.9048696 8.60869565,12.4347826 C8.60869565,12.9646957 8.98953449,13.3913043 9.46259425,13.3913043 L13.4939275,13.3913043 C13.9669873,13.3913043 14.3478261,12.9646957 14.3478261,12.4347826 C14.3478261,11.9048696 13.9669873,11.4782609 13.4939275,11.4782609 L9.46259425,11.4782609 Z" id="Shape"></path>
            </g>
        </g>
    </g>
</svg>