<svg xmlns="http://www.w3.org/2000/svg" width="36.667" height="44" viewBox="0 0 36.667 44">
  <path id="Tracé_329" data-name="Tracé 329" d="M21,49H45.444a1.222,1.222,0,0,0,1.222-1.222V23.333a1.245,1.245,0,0,0-.359-.865L29.2,5.358A1.222,1.222,0,0,0,28.333,5H11.222A1.222,1.222,0,0,0,10,6.222V40.444a1.222,1.222,0,0,0,1.222,1.222h3.667v3.667a1.222,1.222,0,0,0,1.222,1.222h3.667v1.222A1.222,1.222,0,0,0,21,49ZM17.333,12.333H32.716l2.444,2.444H21A1.222,1.222,0,0,0,19.778,16V44.111H17.333ZM12.444,7.444H27.827l2.444,2.444H16.111a1.222,1.222,0,0,0-1.222,1.222V39.222H12.444ZM40.555,46.555H22.222V17.222H36.889v6.111a1.222,1.222,0,0,0,1.222,1.222h6.111v22Zm1.938-24.444h-3.16v-3.16Z" transform="translate(-10 -5)" fill="#4e5983"/>
</svg>
