<svg xmlns="http://www.w3.org/2000/svg" width="17.279" height="17.05" viewBox="0 0 17.279 17.05">
  <g id="Groupe_432" data-name="Groupe 432" transform="translate(-5.66 -6.223)">
    <g id="Groupe_431" data-name="Groupe 431" transform="translate(5.818 6.373)">
      <path id="Tracé_326" data-name="Tracé 326" d="M18.947,12.284c-.146-.042-.3-.077-.447-.106a3.145,3.145,0,0,0,.33-.138,2.988,2.988,0,1,0-2.64,0,3.145,3.145,0,0,0,.33.138c-.154.029-.3.063-.449.106A5.334,5.334,0,0,0,13.618,13.8a2.987,2.987,0,1,0-3.847,4.268,3.293,3.293,0,0,0,.328.138c-.152.029-.3.063-.447.106a5.29,5.29,0,0,0-3.834,4.811h.538a4.742,4.742,0,0,1,9.468,0h.538a5.292,5.292,0,0,0-3.836-4.811c-.146-.042-.3-.077-.445-.106a3.293,3.293,0,0,0,.328-.138,2.99,2.99,0,0,0,1.471-3.751,4.74,4.74,0,0,1,8.366,2.778h.536A5.292,5.292,0,0,0,18.947,12.284Zm-5.362,3.1a2.494,2.494,0,1,1-.3-1.186,2.53,2.53,0,0,1,.3,1.186ZM15.014,9.36a2.5,2.5,0,1,1,2.5,2.5A2.5,2.5,0,0,1,15.014,9.36Z" transform="translate(-5.818 -6.373)" fill="#4390ef" stroke="#4390ef" stroke-width="0.3"/>
    </g>
  </g>
</svg>
