<?xml version="1.0" encoding="UTF-8"?>
<svg width="22px" height="20px" viewBox="0 0 22 20" version="1.1" xmlns="http://www.w3.org/2000/svg" xmlns:xlink="http://www.w3.org/1999/xlink">
    <!-- Generator: Sketch 52.3 (67297) - http://www.bohemiancoding.com/sketch -->
    <title>home icon</title>
    <desc>Created with Sketch.</desc>
    <g id="Page-1" stroke="none" stroke-width="1" fill="none" fill-rule="evenodd">
        <g id="Artboard" fill="#8686A5">
            <g id="home-icon">
                <path d="M21.5960697,7.6379218 L11.4930298,0.160685592 C11.2057395,-0.053561864 10.7748042,-0.053561864 10.4875139,0.160685592 L0.384473965,7.6379218 C-0.381633331,8.21638993 0.073242876,9.3304767 1.0787587,9.3304767 L2.20397879,9.3304767 L2.20397879,18.3288698 C2.20397879,19.2501339 3.0179678,20 4.07136533,20 C5.20016766,20 5.91619422,20 6.21944503,20 C6.67432123,20 7.00949318,19.7000536 7.00949318,19.2929834 L7.00949318,14.94376 C7.00949318,14.5366899 7.34466512,14.0077594 7.79954133,14.0077594 L14.230851,14.0077594 C14.6857272,14.0077594 15.0208991,14.5366899 15.0208991,14.94376 L15.0208991,19.2715587 C15.0208991,19.6786288 15.3560711,19.9785753 15.8109473,19.9785753 C16.1141981,19.9785753 16.8375493,19.9785753 17.9810009,19.9785753 C19.0104576,19.9785753 19.8483875,19.2501339 19.8483875,18.3074451 L19.8483875,9.30905196 L20.9736076,9.30905196 C21.9312417,9.3304767 22.3861179,8.21638993 21.5960697,7.6379218 Z" id="Path"></path>
                <rect id="Rectangle" x="6" y="15" width="10" height="1"></rect>
                <rect id="Rectangle" x="6" y="17" width="10" height="1"></rect>
                <rect id="Rectangle" x="6" y="19" width="10" height="1"></rect>
            </g>
        </g>
    </g>
</svg>