<svg xmlns="http://www.w3.org/2000/svg" width="15.829" height="15.847" viewBox="0 0 15.829 15.847">
  <path id="Tracé_321" data-name="Tracé 321" d="M19.7,15.358l1.733-.447V12.5L19.7,12.053a6.5,6.5,0,0,0-.643-1.554l.911-1.536-1.715-1.7-1.536.911a6.5,6.5,0,0,0-1.554-.643L14.711,5.8H12.3l-.447,1.733a6.5,6.5,0,0,0-1.554.643L8.78,7.265,7.065,8.98l.911,1.536a6.5,6.5,0,0,0-.643,1.554L5.6,12.517v2.412l1.733.447a6.5,6.5,0,0,0,.643,1.554l-.911,1.536L8.78,20.182l1.536-.911a6.211,6.211,0,0,0,1.554.643l.447,1.733h2.412l.447-1.733a6.5,6.5,0,0,0,1.554-.643l1.536.911,1.715-1.715-.929-1.554A6.211,6.211,0,0,0,19.7,15.358Zm-6.181.84A2.483,2.483,0,1,1,16,13.714,2.478,2.478,0,0,1,13.514,16.2Z" transform="translate(-5.6 -5.8)" fill="#FFFFFF"/>
</svg>
